<svg width="554" height="53" viewBox="0 0 554 53" fill="none" xmlns="http://www.w3.org/2000/svg">
<path d="M17.71 52.415L16.5 40.645L8.745 40.535L7.48 52.415H-6.05127e-07L7.26 0.439975H18.15L25.3 52.415H17.71ZM9.405 34.265H15.84L13.97 16.17L12.87 7.42498H12.375L11.275 16.17L9.405 34.265ZM51.8152 29.865L51.3202 14.96V0.439975H58.1402V52.415H51.0452L43.8952 20.295H43.4552L43.8402 34.485V52.415H37.0202V0.439975H44.8852L51.3752 29.865H51.8152ZM71.4592 46.09H80.8642V52.415H64.1442V0.439975H80.7542V6.76498H71.4592V22.55H79.9842V28.765H71.4592V46.09ZM110.55 36.905H111.1L111.815 27.005L114.345 0.439975H122.045L115.72 52.36H106.59L103.4 26.62L102.41 15.345H101.97L101.035 26.62L97.79 52.415H88.66L82.5 0.439975H90.2L92.62 27.005L93.39 36.85H93.885L94.875 27.005L98.34 0.439975H106.205L109.67 27.005L110.55 36.905ZM154.27 28.765V42.845C154.27 46.035 153.372 48.51 151.575 50.27C149.778 52.03 147.212 52.91 143.875 52.91C140.465 52.91 137.843 51.92 136.01 49.94C134.177 47.96 133.26 45.155 133.26 41.525V11.33C133.26 7.73664 134.177 4.94998 136.01 2.96998C137.843 0.989975 140.465 -2.57492e-05 143.875 -2.57492e-05C147.212 -2.57492e-05 149.778 0.861642 151.575 2.58498C153.372 4.30831 154.27 6.76498 154.27 9.95498V22.55H147.065V10.23C147.065 9.05664 146.772 8.12164 146.185 7.42498C145.635 6.72831 144.883 6.37998 143.93 6.37998C142.977 6.37998 142.188 6.72831 141.565 7.42498C140.942 8.12164 140.63 9.05664 140.63 10.23V42.625C140.63 43.7983 140.942 44.7516 141.565 45.485C142.188 46.1816 142.977 46.53 143.93 46.53C144.883 46.53 145.635 46.1816 146.185 45.485C146.772 44.7516 147.065 43.7983 147.065 42.625V28.765H154.27ZM172.844 0.439975H180.159V52.415H172.844V28.875H166.904V52.415H159.589V0.439975H166.904V22.495H172.844V0.439975ZM201.025 52.415L199.815 40.645L192.06 40.535L190.795 52.415H183.315L190.575 0.439975H201.465L208.615 52.415H201.025ZM192.72 34.265H199.155L197.285 16.17L196.185 7.42498H195.69L194.59 16.17L192.72 34.265ZM218.949 46.09H227.914V52.415H211.634V0.439975H218.949V46.09ZM238.017 46.09H246.982V52.415H230.702V0.439975H238.017V46.09ZM257.084 46.09H266.489V52.415H249.769V0.439975H266.379V6.76498H257.084V22.55H265.609V28.765H257.084V46.09ZM286.049 29.865L285.554 14.96V0.439975H292.374V52.415H285.279L278.129 20.295H277.689L278.074 34.485V52.415H271.254V0.439975H279.119L285.609 29.865H286.049ZM312.018 48.895C310.991 51.5716 308.864 52.91 305.638 52.91C303.364 52.8733 301.513 52.0116 300.083 50.325C298.653 48.6383 297.938 46.2733 297.938 43.23V11.33C297.938 7.69998 298.854 4.91331 300.688 2.96998C302.558 0.989975 305.234 -2.57492e-05 308.718 -2.57492e-05C312.091 -2.57492e-05 314.658 0.861642 316.418 2.58498C318.214 4.30831 319.113 6.69164 319.113 9.73498V20.68H311.853V10.23C311.853 7.66331 310.771 6.37998 308.608 6.37998C307.654 6.37998 306.866 6.72831 306.243 7.42498C305.619 8.12164 305.308 9.05664 305.308 10.23V42.68C305.308 45.2466 306.389 46.53 308.553 46.53C309.506 46.53 310.294 46.1816 310.918 45.485C311.578 44.7883 311.908 43.9266 311.908 42.9V30.745H308.498V24.585H319.113V52.415H313.228L312.513 48.895H312.018ZM331.742 46.09H341.147V52.415H324.427V0.439975H341.037V6.76498H331.742V22.55H340.267V28.765H331.742V46.09ZM361.928 46.09H371.333V52.415H354.613V0.439975H371.223V6.76498H361.928V22.55H370.453V28.765H361.928V46.09ZM389.689 0.384976H397.389L390.624 52.415H379.679L372.969 0.439975H380.669L383.584 30.69L385.014 42.405H385.564L386.884 30.69L389.689 0.384976ZM407.743 46.09H417.148V52.415H400.428V0.439975H417.038V6.76498H407.743V22.55H416.268V28.765H407.743V46.09ZM443.748 52.415H436.488L433.573 33.22H429.228V52.415H421.913V0.439975H432.528C435.828 0.439975 438.376 1.31998 440.173 3.07998C442.006 4.80331 442.923 7.35164 442.923 10.725V22.275C442.923 25.575 441.896 28.1783 439.843 30.085L443.748 52.415ZM429.283 27.005H431.428C434.141 27.005 435.498 25.5016 435.498 22.495V11.22C435.498 8.24998 434.141 6.76498 431.428 6.76498H429.283V27.005ZM457.499 23.76L458.819 16.83L461.734 0.439975L469.764 0.384976L460.744 37.73V52.415H453.429V37.565L444.464 0.384976L452.659 0.439975L455.629 16.83L456.949 23.76H457.499ZM492.692 0.439975C495.808 0.439975 498.247 1.37498 500.007 3.24498C501.767 5.11498 502.647 7.79164 502.647 11.275V41.58C502.647 45.0633 501.767 47.74 500.007 49.61C498.247 51.48 495.808 52.415 492.692 52.415H481.747V0.439975H492.692ZM495.277 42.295V10.505C495.277 9.33164 494.983 8.41498 494.397 7.75498C493.81 7.09498 493.04 6.76498 492.087 6.76498H489.062V46.09H492.032C492.985 46.09 493.755 45.76 494.342 45.1C494.965 44.44 495.277 43.505 495.277 42.295ZM522.754 52.415L521.544 40.645L513.789 40.535L512.524 52.415H505.044L512.304 0.439975H523.194L530.344 52.415H522.754ZM514.449 34.265H520.884L519.014 16.17L517.914 7.42498H517.419L516.319 16.17L514.449 34.265ZM541.181 23.76L542.501 16.83L545.416 0.439975L553.446 0.384976L544.426 37.73V52.415H537.111V37.565L528.146 0.384976L536.341 0.439975L539.311 16.83L540.631 23.76H541.181Z" fill="#203E51"/>
</svg>
