<svg width="312" height="39" viewBox="0 0 312 39" fill="none" xmlns="http://www.w3.org/2000/svg">
<path d="M12.88 38.1201L12 29.5601L6.36 29.4801L5.44 38.1201H-1.82725e-06L5.28 0.320115H13.2L18.4 38.1201H12.88ZM6.84 24.9201H11.52L10.16 11.7601L9.36 5.40012H9L8.2 11.7601L6.84 24.9201ZM28.3156 26.2801H25.9156V38.1201H20.5956V0.320115H28.2756C30.7023 0.320115 32.5956 0.973449 33.9556 2.28012C35.3156 3.58678 35.9956 5.46678 35.9956 7.92011V18.4801C35.9956 20.8801 35.2756 22.7868 33.8356 24.2001C32.3956 25.5868 30.5556 26.2801 28.3156 26.2801ZM27.8356 21.6801C28.7156 21.6801 29.3956 21.4001 29.8756 20.8401C30.3556 20.2534 30.5956 19.4401 30.5956 18.4001V8.08012C30.5956 7.06678 30.3556 6.29345 29.8756 5.76012C29.3956 5.20012 28.7156 4.92012 27.8356 4.92012H25.9156V21.6801H27.8356ZM47.0266 26.2801H44.6266V38.1201H39.3066V0.320115H46.9866C49.4132 0.320115 51.3066 0.973449 52.6666 2.28012C54.0266 3.58678 54.7066 5.46678 54.7066 7.92011V18.4801C54.7066 20.8801 53.9866 22.7868 52.5466 24.2001C51.1066 25.5868 49.2666 26.2801 47.0266 26.2801ZM46.5466 21.6801C47.4266 21.6801 48.1066 21.4001 48.5866 20.8401C49.0666 20.2534 49.3066 19.4401 49.3066 18.4001V8.08012C49.3066 7.06678 49.0666 6.29345 48.5866 5.76012C48.1066 5.20012 47.4266 4.92012 46.5466 4.92012H44.6266V21.6801H46.5466ZM63.3375 33.5201H69.8575V38.1201H58.0175V0.320115H63.3375V33.5201ZM71.8847 0.320115H77.2047V38.1201H71.8847V0.320115ZM96.4931 20.9201V31.1601C96.4931 33.4801 95.8398 35.2801 94.5331 36.5601C93.2265 37.8401 91.3598 38.4801 88.9331 38.4801C86.4531 38.4801 84.5465 37.7601 83.2131 36.3201C81.8798 34.8801 81.2131 32.8401 81.2131 30.2001V8.24012C81.2131 5.62678 81.8798 3.60012 83.2131 2.16012C84.5465 0.720115 86.4531 0.000114441 88.9331 0.000114441C91.3598 0.000114441 93.2265 0.626782 94.5331 1.88012C95.8398 3.13345 96.4931 4.92012 96.4931 7.24012V16.4001H91.2531V7.44012C91.2531 6.58678 91.0398 5.90678 90.6131 5.40012C90.2131 4.89345 89.6665 4.64012 88.9731 4.64012C88.2798 4.64012 87.7065 4.89345 87.2531 5.40012C86.7998 5.90678 86.5731 6.58678 86.5731 7.44012V31.0001C86.5731 31.8535 86.7998 32.5468 87.2531 33.0801C87.7065 33.5868 88.2798 33.8401 88.9731 33.8401C89.6665 33.8401 90.2131 33.5868 90.6131 33.0801C91.0398 32.5468 91.2531 31.8535 91.2531 31.0001V20.9201H96.4931ZM111.005 38.1201L110.125 29.5601L104.485 29.4801L103.565 38.1201H98.125L103.405 0.320115H111.325L116.525 38.1201H111.005ZM104.965 24.9201H109.645L108.285 11.7601L107.485 5.40012H107.125L106.325 11.7601L104.965 24.9201ZM130.952 0.320115V4.92012H125.752V38.1201H120.432V4.96011H115.232V0.320115H130.952ZM133.096 0.320115H138.416V38.1201H133.096V0.320115ZM150.144 0.000114441C152.651 0.000114441 154.571 0.720115 155.904 2.16012C157.264 3.60012 157.944 5.62678 157.944 8.24012V30.2001C157.944 32.8401 157.264 34.8801 155.904 36.3201C154.544 37.7601 152.624 38.4801 150.144 38.4801C147.664 38.4801 145.757 37.7601 144.424 36.3201C143.091 34.8801 142.424 32.8401 142.424 30.2001V8.24012C142.424 5.62678 143.091 3.60012 144.424 2.16012C145.757 0.720115 147.664 0.000114441 150.144 0.000114441ZM152.584 31.0001V7.44012C152.584 6.58678 152.371 5.90678 151.944 5.40012C151.517 4.89345 150.944 4.64012 150.224 4.64012C149.504 4.64012 148.917 4.89345 148.464 5.40012C148.011 5.90678 147.784 6.58678 147.784 7.44012V31.0001C147.784 31.8535 148.011 32.5468 148.464 33.0801C148.917 33.5868 149.491 33.8401 150.184 33.8401C150.904 33.8401 151.477 33.5868 151.904 33.0801C152.357 32.5468 152.584 31.8535 152.584 31.0001ZM172.723 21.7201L172.363 10.8801V0.320115H177.323V38.1201H172.163L166.963 14.7601H166.643L166.923 25.0801V38.1201H161.963V0.320115H167.683L172.403 21.7201H172.723ZM201.577 0.320115V4.92012H196.377V38.1201H191.057V4.96011H185.857V0.320115H201.577ZM203.721 0.320115H209.041V38.1201H203.721V0.320115ZM224.769 27.3201L225.569 19.0001L228.129 0.320115H235.769V38.1201H230.809L230.849 23.3601L231.089 10.8801H230.729L227.289 38.1201H221.649L218.449 10.8801H218.089L218.329 23.3601V38.1201H213.369V0.320115H221.129L223.609 19.0001L224.449 27.3201H224.769ZM245.408 33.5201H252.248V38.1201H240.088V0.320115H252.168V4.92012H245.408V16.4001H251.608V20.9201H245.408V33.5201ZM261.033 33.5201H267.553V38.1201H255.713V0.320115H261.033V33.5201ZM269.58 0.320115H274.9V38.1201H269.58V0.320115ZM289.988 21.7201L289.628 10.8801V0.320115H294.588V38.1201H289.428L284.228 14.7601H283.908L284.188 25.0801V38.1201H279.228V0.320115H284.948L289.668 21.7201H289.988ZM304.275 33.5201H311.115V38.1201H298.955V0.320115H311.035V4.92012H304.275V16.4001H310.475V20.9201H304.275V33.5201Z" fill="#203E51"/>
</svg>
