<svg width="426" height="43" viewBox="0 0 426 43" fill="none" xmlns="http://www.w3.org/2000/svg">
<path d="M11.88 4.92012H5.32V16.4001H11.4V21.0001H5.32V38.1201H-3.60608e-06V0.320115H11.88V4.92012ZM30.3722 38.1201H25.0922L22.9722 24.1601H19.8122V38.1201H14.4922V0.320115H22.2122C24.6122 0.320115 26.4655 0.960116 27.7722 2.24012C29.1055 3.49345 29.7722 5.34678 29.7722 7.80012V16.2001C29.7722 18.6001 29.0255 20.4934 27.5322 21.8801L30.3722 38.1201ZM19.8522 19.6401H21.4122C23.3855 19.6401 24.3722 18.5468 24.3722 16.3601V8.16012C24.3722 6.00012 23.3855 4.92012 21.4122 4.92012H19.8522V19.6401ZM39.0309 33.5201H45.8709V38.1201H33.7109V0.320115H45.7909V4.92012H39.0309V16.4001H45.2309V20.9201H39.0309V33.5201ZM64.5359 30.2001C64.5359 33.0801 63.7093 35.2668 62.0559 36.7601L64.2959 42.1201L58.7359 42.0801L57.4559 38.4401C57.2959 38.4668 57.0559 38.4801 56.7359 38.4801C54.2559 38.4801 52.3493 37.7601 51.0159 36.3201C49.6826 34.8801 49.0159 32.8401 49.0159 30.2001V8.24012C49.0159 5.62678 49.6826 3.60012 51.0159 2.16012C52.3493 0.720115 54.2559 0.000114441 56.7359 0.000114441C59.2426 0.000114441 61.1626 0.720115 62.4959 2.16012C63.8559 3.60012 64.5359 5.62678 64.5359 8.24012V30.2001ZM54.3759 31.0001C54.3759 31.8535 54.6026 32.5468 55.0559 33.0801C55.5093 33.5868 56.0826 33.8401 56.7759 33.8401C57.4959 33.8401 58.0693 33.5868 58.4959 33.0801C58.9493 32.5468 59.1759 31.8535 59.1759 31.0001V7.44012C59.1759 6.58678 58.9626 5.90678 58.5359 5.40012C58.1093 4.89345 57.5359 4.64012 56.8159 4.64012C56.0959 4.64012 55.5093 4.89345 55.0559 5.40012C54.6026 5.90678 54.3759 6.58678 54.3759 7.44012V31.0001ZM83.4747 0.320115V31.6001C83.4747 33.8401 82.8214 35.5468 81.5147 36.7201C80.208 37.8935 78.3547 38.4801 75.9547 38.4801C73.5814 38.4801 71.7414 37.9068 70.4347 36.7601C69.128 35.5868 68.4747 33.8935 68.4747 31.6801V0.320115H73.7947V31.2401C73.7947 32.1201 73.9947 32.7735 74.3947 33.2001C74.8214 33.6268 75.3547 33.8401 75.9947 33.8401C77.4614 33.8401 78.1947 32.9735 78.1947 31.2401V0.320115H83.4747ZM93.0934 33.5201H99.9334V38.1201H87.7734V0.320115H99.8534V4.92012H93.0934V16.4001H99.2934V20.9201H93.0934V33.5201ZM114.158 21.7201L113.798 10.8801V0.320115H118.758V38.1201H113.598L108.398 14.7601H108.078L108.358 25.0801V38.1201H103.398V0.320115H109.118L113.838 21.7201H114.158ZM136.685 0.320115V4.92012H131.485V38.1201H126.165V4.96011H120.965V0.320115H136.685ZM144.148 33.5201H150.668V38.1201H138.828V0.320115H144.148V33.5201ZM157.912 17.2801L158.872 12.2401L160.992 0.320115L166.832 0.280116L160.272 27.4401V38.1201H154.952V27.3201L148.432 0.280116L154.392 0.320115L156.552 12.2401L157.512 17.2801H157.912ZM186.347 38.1201L185.467 29.5601L179.827 29.4801L178.907 38.1201H173.467L178.747 0.320115H186.667L191.867 38.1201H186.347ZM180.307 24.9201H184.987L183.627 11.7601L182.827 5.40012H182.467L181.667 11.7601L180.307 24.9201ZM208.591 13.0001H203.351V6.92012C203.351 5.40012 202.564 4.64012 200.991 4.64012C200.271 4.64012 199.711 4.82678 199.311 5.20012C198.938 5.57345 198.751 6.04012 198.751 6.60012V12.5201C198.751 13.2401 198.898 13.8001 199.191 14.2001C199.511 14.5734 200.044 14.9334 200.791 15.2801L203.551 16.3601C205.391 17.1068 206.751 17.9868 207.631 19.0001C208.511 20.0134 208.951 21.5068 208.951 23.4801V31.1601C208.951 33.4001 208.244 35.1868 206.831 36.5201C205.444 37.8268 203.578 38.4801 201.231 38.4801C198.858 38.4801 196.978 37.8801 195.591 36.6801C194.231 35.4535 193.551 33.8135 193.551 31.7601V24.0001H198.831V31.3601C198.831 32.0801 199.031 32.6801 199.431 33.1601C199.858 33.6135 200.458 33.8401 201.231 33.8401C201.924 33.8401 202.484 33.6135 202.911 33.1601C203.364 32.7068 203.591 32.1468 203.591 31.4801V24.2801C203.591 22.8668 202.791 21.8268 201.191 21.1601L198.271 20.1201C196.591 19.5068 195.364 18.6668 194.591 17.6001C193.818 16.5334 193.431 15.0801 193.431 13.2401V6.80012C193.431 4.85345 194.071 3.24011 195.351 1.96012C196.658 0.653448 198.564 0.000114441 201.071 0.000114441C203.498 0.000114441 205.351 0.586782 206.631 1.76012C207.938 2.90678 208.591 4.45345 208.591 6.40012V13.0001ZM229.696 38.1201H223.576L218.376 20.6801H217.936L217.976 38.1201H212.656V0.320115H217.976V17.0801H218.336L223.376 0.320115H229.056L223.096 18.6001L229.696 38.1201ZM237.117 33.5201H243.957V38.1201H231.797V0.320115H243.877V4.92012H237.117V16.4001H243.317V20.9201H237.117V33.5201ZM255.382 0.320115C257.649 0.320115 259.422 1.00012 260.702 2.36012C261.982 3.72012 262.622 5.66678 262.622 8.20012V30.2401C262.622 32.7735 261.982 34.7201 260.702 36.0801C259.422 37.4401 257.649 38.1201 255.382 38.1201H247.422V0.320115H255.382ZM257.262 30.7601V7.64012C257.262 6.78678 257.049 6.12012 256.622 5.64012C256.195 5.16012 255.635 4.92012 254.942 4.92012H252.742V33.5201H254.902C255.595 33.5201 256.155 33.2801 256.582 32.8001C257.035 32.3201 257.262 31.6401 257.262 30.7601ZM288.169 30.2001C288.169 33.0801 287.342 35.2668 285.689 36.7601L287.929 42.1201L282.369 42.0801L281.089 38.4401C280.929 38.4668 280.689 38.4801 280.369 38.4801C277.889 38.4801 275.982 37.7601 274.649 36.3201C273.315 34.8801 272.649 32.8401 272.649 30.2001V8.24012C272.649 5.62678 273.315 3.60012 274.649 2.16012C275.982 0.720115 277.889 0.000114441 280.369 0.000114441C282.875 0.000114441 284.795 0.720115 286.129 2.16012C287.489 3.60012 288.169 5.62678 288.169 8.24012V30.2001ZM278.009 31.0001C278.009 31.8535 278.235 32.5468 278.689 33.0801C279.142 33.5868 279.715 33.8401 280.409 33.8401C281.129 33.8401 281.702 33.5868 282.129 33.0801C282.582 32.5468 282.809 31.8535 282.809 31.0001V7.44012C282.809 6.58678 282.595 5.90678 282.169 5.40012C281.742 4.89345 281.169 4.64012 280.449 4.64012C279.729 4.64012 279.142 4.89345 278.689 5.40012C278.235 5.90678 278.009 6.58678 278.009 7.44012V31.0001ZM307.107 0.320115V31.6001C307.107 33.8401 306.454 35.5468 305.147 36.7201C303.841 37.8935 301.987 38.4801 299.587 38.4801C297.214 38.4801 295.374 37.9068 294.067 36.7601C292.761 35.5868 292.107 33.8935 292.107 31.6801V0.320115H297.427V31.2401C297.427 32.1201 297.627 32.7735 298.027 33.2001C298.454 33.6268 298.987 33.8401 299.627 33.8401C301.094 33.8401 301.827 32.9735 301.827 31.2401V0.320115H307.107ZM316.726 33.5201H323.566V38.1201H311.406V0.320115H323.486V4.92012H316.726V16.4001H322.926V20.9201H316.726V33.5201ZM341.911 13.0001H336.671V6.92012C336.671 5.40012 335.885 4.64012 334.311 4.64012C333.591 4.64012 333.031 4.82678 332.631 5.20012C332.258 5.57345 332.071 6.04012 332.071 6.60012V12.5201C332.071 13.2401 332.218 13.8001 332.511 14.2001C332.831 14.5734 333.365 14.9334 334.111 15.2801L336.871 16.3601C338.711 17.1068 340.071 17.9868 340.951 19.0001C341.831 20.0134 342.271 21.5068 342.271 23.4801V31.1601C342.271 33.4001 341.565 35.1868 340.151 36.5201C338.765 37.8268 336.898 38.4801 334.551 38.4801C332.178 38.4801 330.298 37.8801 328.911 36.6801C327.551 35.4535 326.871 33.8135 326.871 31.7601V24.0001H332.151V31.3601C332.151 32.0801 332.351 32.6801 332.751 33.1601C333.178 33.6135 333.778 33.8401 334.551 33.8401C335.245 33.8401 335.805 33.6135 336.231 33.1601C336.685 32.7068 336.911 32.1468 336.911 31.4801V24.2801C336.911 22.8668 336.111 21.8268 334.511 21.1601L331.591 20.1201C329.911 19.5068 328.685 18.6668 327.911 17.6001C327.138 16.5334 326.751 15.0801 326.751 13.2401V6.80012C326.751 4.85345 327.391 3.24011 328.671 1.96012C329.978 0.653448 331.885 0.000114441 334.391 0.000114441C336.818 0.000114441 338.671 0.586782 339.951 1.76012C341.258 2.90678 341.911 4.45345 341.911 6.40012V13.0001ZM359.224 0.320115V4.92012H354.024V38.1201H348.704V4.96011H343.504V0.320115H359.224ZM361.367 0.320115H366.687V38.1201H361.367V0.320115ZM378.416 0.000114441C380.922 0.000114441 382.842 0.720115 384.176 2.16012C385.536 3.60012 386.216 5.62678 386.216 8.24012V30.2001C386.216 32.8401 385.536 34.8801 384.176 36.3201C382.816 37.7601 380.896 38.4801 378.416 38.4801C375.936 38.4801 374.029 37.7601 372.696 36.3201C371.362 34.8801 370.696 32.8401 370.696 30.2001V8.24012C370.696 5.62678 371.362 3.60012 372.696 2.16012C374.029 0.720115 375.936 0.000114441 378.416 0.000114441ZM380.856 31.0001V7.44012C380.856 6.58678 380.642 5.90678 380.216 5.40012C379.789 4.89345 379.216 4.64012 378.496 4.64012C377.776 4.64012 377.189 4.89345 376.736 5.40012C376.282 5.90678 376.056 6.58678 376.056 7.44012V31.0001C376.056 31.8535 376.282 32.5468 376.736 33.0801C377.189 33.5868 377.762 33.8401 378.456 33.8401C379.176 33.8401 379.749 33.5868 380.176 33.0801C380.629 32.5468 380.856 31.8535 380.856 31.0001ZM400.994 21.7201L400.634 10.8801V0.320115H405.594V38.1201H400.434L395.234 14.7601H394.914L395.194 25.0801V38.1201H390.234V0.320115H395.954L400.674 21.7201H400.994ZM424.841 13.0001H419.601V6.92012C419.601 5.40012 418.814 4.64012 417.241 4.64012C416.521 4.64012 415.961 4.82678 415.561 5.20012C415.188 5.57345 415.001 6.04012 415.001 6.60012V12.5201C415.001 13.2401 415.148 13.8001 415.441 14.2001C415.761 14.5734 416.294 14.9334 417.041 15.2801L419.801 16.3601C421.641 17.1068 423.001 17.9868 423.881 19.0001C424.761 20.0134 425.201 21.5068 425.201 23.4801V31.1601C425.201 33.4001 424.494 35.1868 423.081 36.5201C421.694 37.8268 419.828 38.4801 417.481 38.4801C415.108 38.4801 413.228 37.8801 411.841 36.6801C410.481 35.4535 409.801 33.8135 409.801 31.7601V24.0001H415.081V31.3601C415.081 32.0801 415.281 32.6801 415.681 33.1601C416.108 33.6135 416.708 33.8401 417.481 33.8401C418.174 33.8401 418.734 33.6135 419.161 33.1601C419.614 32.7068 419.841 32.1468 419.841 31.4801V24.2801C419.841 22.8668 419.041 21.8268 417.441 21.1601L414.521 20.1201C412.841 19.5068 411.614 18.6668 410.841 17.6001C410.068 16.5334 409.681 15.0801 409.681 13.2401V6.80012C409.681 4.85345 410.321 3.24011 411.601 1.96012C412.908 0.653448 414.814 0.000114441 417.321 0.000114441C419.748 0.000114441 421.601 0.586782 422.881 1.76012C424.188 2.90678 424.841 4.45345 424.841 6.40012V13.0001Z" fill="#203E51"/>
</svg>
