<?xml version="1.0" encoding="UTF-8"?>
<svg id="Layer_2" xmlns="http://www.w3.org/2000/svg" version="1.1" viewBox="0 0 440.63 116.7">
  <!-- Generator: Adobe Illustrator 30.0.0, SVG Export Plug-In . SVG Version: 2.1.1 Build 123)  -->
  <defs>
    <style>
      .st0, .st1 {
        fill: #203e51;
      }

      .st1 {
        stroke: #203e51;
        stroke-linecap: square;
        stroke-miterlimit: 10;
        stroke-width: 3px;
      }
    </style>
  </defs>
  <g id="Layer_1-2">
    <g>
      <path class="st0" d="M35.13,31.48h12.79v44.24h25.34v10.93h-38.12V31.48h-.01Z"/>
      <path class="st0" d="M185.15,45.27v7.98c0,9.22-4.73,13.79-14.26,13.79h-16.35v19.6h-12.79V31.48h29.13c9.53,0,14.26,4.57,14.26,13.79h0ZM167.18,56.12c3.87,0,5.19-1.24,5.19-4.88v-3.95c0-3.64-1.32-4.88-5.19-4.88h-12.63v13.71s12.63,0,12.63,0Z"/>
      <path class="st0" d="M238.51,45.27v27.58c0,9.22-4.73,13.79-14.18,13.79h-29.37V31.48h29.37c9.45,0,14.18,4.57,14.18,13.79h0ZM220.53,42.41h-12.79v33.32h12.79c3.87,0,5.19-1.24,5.19-4.88v-23.56c0-3.64-1.32-4.88-5.19-4.88Z"/>
      <path class="st0" d="M257.96,32.13h2.42v11.66h6.93v2.07h-9.35v-13.73Z"/>
      <path class="st0" d="M281.4,35.42v7.16c0,2.36-1.14,3.47-3.64,3.47h-3.68c-2.5,0-3.66-1.1-3.66-3.47v-7.16c0-2.38,1.16-3.49,3.66-3.49h3.68c2.5,0,3.64,1.1,3.64,3.49ZM277.08,34.03h-2.32c-1.43,0-1.92.45-1.92,1.76v6.43c0,1.32.48,1.76,1.92,1.76h2.32c1.43,0,1.9-.45,1.9-1.76v-6.43c0-1.32-.46-1.76-1.9-1.76Z"/>
      <path class="st0" d="M284.97,42.6c0-.14,0-.16.02-.21l2.4-.29v.14c0,1.3.48,1.74,1.92,1.74h2.36c1.41,0,1.9-.45,1.9-1.76v-.33c0-1.06-.37-1.37-1.88-1.59l-3.35-.48c-2.42-.35-3.29-1.18-3.29-3.19v-1.2c0-2.38,1.16-3.49,3.64-3.49h3.58c2.5,0,3.64,1.1,3.64,3.45v.21l-2.42.29v-.14c0-1.28-.48-1.72-1.9-1.72h-2.19c-1.43,0-1.94.45-1.94,1.76v.23c0,1.08.33,1.36,1.9,1.59l3.35.48c2.44.35,3.27,1.18,3.27,3.21v1.28c0,2.36-1.14,3.47-3.64,3.47h-3.72c-2.5,0-3.66-1.1-3.66-3.45h.01Z"/>
      <path class="st0" d="M268.47,55.76v1.59c0,2.38-1.14,3.49-3.64,3.49h-4.45v5.17h-2.42v-13.73h6.88c2.5,0,3.64,1.1,3.64,3.49h0ZM264.16,58.74c1.41,0,1.9-.45,1.9-1.76v-.85c0-1.32-.48-1.76-1.9-1.76h-3.78v4.38h3.78Z"/>
      <path class="st0" d="M282.69,55.56v7.16c0,2.36-1.14,3.47-3.64,3.47h-3.68c-2.5,0-3.66-1.1-3.66-3.47v-7.16c0-2.38,1.16-3.49,3.66-3.49h3.68c2.5,0,3.64,1.1,3.64,3.49ZM278.37,54.17h-2.32c-1.43,0-1.92.45-1.92,1.76v6.43c0,1.32.48,1.76,1.92,1.76h2.32c1.43,0,1.9-.45,1.9-1.76v-6.43c0-1.32-.46-1.76-1.9-1.76Z"/>
      <path class="st0" d="M286.44,52.27h2.42v11.66h6.93v2.07h-9.35v-13.73Z"/>
      <path class="st0" d="M299.04,52.27h2.42v13.73h-2.42v-13.73Z"/>
      <path class="st0" d="M305.18,62.73v-7.16c0-2.38,1.16-3.49,3.66-3.49h3.68c2.5,0,3.64,1.1,3.64,3.45v.21l-2.42.29v-.14c0-1.28-.46-1.72-1.9-1.72h-2.32c-1.43,0-1.92.45-1.92,1.76v6.43c0,1.32.48,1.76,1.92,1.76h2.32c1.43,0,1.9-.45,1.9-1.74v-.14l2.42.29v.21c0,2.34-1.14,3.45-3.64,3.45h-3.68c-2.5,0-3.66-1.1-3.66-3.47h0Z"/>
      <path class="st0" d="M322.18,54.36v3.54h6.41v2.07h-6.41v3.95h7.22v2.07h-9.64v-13.73h9.64v2.09h-7.22Z"/>
      <path class="st0" d="M268.51,75.9v6.78c0,2.36-1.16,3.47-3.64,3.47h-6.91v-13.73h6.91c2.48,0,3.64,1.1,3.64,3.49h0ZM264.17,74.51h-3.79v9.57h3.79c1.43,0,1.92-.45,1.92-1.76v-6.04c0-1.32-.48-1.76-1.92-1.76h0Z"/>
      <path class="st0" d="M274.66,74.51v3.54h6.41v2.07h-6.41v3.95h7.22v2.07h-9.64v-13.73h9.64v2.09h-7.22Z"/>
      <path class="st0" d="M295.75,75.9v1.59c0,2.38-1.14,3.49-3.64,3.49h-4.45v5.17h-2.42v-13.73h6.87c2.5,0,3.64,1.1,3.64,3.49h0ZM291.43,78.88c1.41,0,1.9-.45,1.9-1.76v-.85c0-1.32-.48-1.76-1.9-1.76h-3.78v4.38h3.78Z"/>
      <path class="st0" d="M301.94,72.42h3.51l4.72,13.73h-2.5l-1.22-3.64h-5.52l-1.22,3.64h-2.48l4.71-13.73ZM305.76,80.43l-2.05-6.1-2.05,6.1h4.11-.01Z"/>
      <path class="st0" d="M313.42,72.42h6.91c2.48,0,3.64,1.1,3.64,3.49v1.49c0,2.11-.93,3.21-2.87,3.43l4.05,5.32h-2.85l-4.12-5.29h-2.34v5.29h-2.42v-13.73ZM319.63,78.77c1.43,0,1.92-.43,1.92-1.74v-.76c0-1.32-.48-1.76-1.92-1.76h-3.79v4.26h3.79Z"/>
      <path class="st0" d="M331.53,74.51h-4.34v-2.09h11.11v2.09h-4.36v11.64h-2.42v-11.64h.01Z"/>
      <path class="st0" d="M355.07,72.42v13.73h-2.42v-9.76l-3.87,5.98h-.93l-3.89-6.02v9.8h-2.42v-13.73h2.4l4.38,6.78,4.38-6.78h2.38,0Z"/>
      <path class="st0" d="M361.37,74.51v3.54h6.41v2.07h-6.41v3.95h7.22v2.07h-9.64v-13.73h9.64v2.09h-7.22Z"/>
      <path class="st0" d="M371.92,72.42h2.4l6.2,9.76v-9.76h2.42v13.73h-2.38l-6.22-9.8v9.8h-2.42v-13.73Z"/>
      <path class="st0" d="M390.51,74.51h-4.34v-2.09h11.12v2.09h-4.36v11.64h-2.42v-11.64Z"/>
      <path class="st0" d="M440.63,116.7H0V0h440.63v116.7ZM7.46,109.24h425.7V7.46H7.46v101.78Z"/>
    </g>
  </g>
  <path class="st1" d="M85.12,72.43c0-.52,0-.59.08-.78l9.38-1.07v.52c0,4.8,1.88,6.43,7.51,6.43h9.23c5.51,0,7.43-1.66,7.43-6.5v-1.22c0-3.91-1.45-5.06-7.35-5.87l-13.1-1.77c-9.46-1.29-12.86-4.36-12.86-11.78v-4.43c0-8.79,4.54-12.89,14.23-12.89h14c9.77,0,14.23,4.06,14.23,12.74v.78l-9.46,1.07v-.52c0-4.73-1.88-6.35-7.43-6.35h-8.56c-5.59,0-7.59,1.66-7.59,6.5v.85c0,3.99,1.29,5.02,7.43,5.87l13.1,1.77c9.54,1.29,12.79,4.36,12.79,11.85v4.73c0,8.71-4.46,12.81-14.23,12.81h-14.55c-9.77,0-14.31-4.06-14.31-12.74h.04Z"/>
  <path class="st0" d="M304.57,42.6c0-.14,0-.16.02-.21l2.4-.29v.14c0,1.3.48,1.74,1.92,1.74h2.36c1.41,0,1.9-.45,1.9-1.76v-.33c0-1.06-.37-1.37-1.88-1.59l-3.35-.48c-2.42-.35-3.29-1.18-3.29-3.19v-1.2c0-2.38,1.16-3.49,3.64-3.49h3.58c2.5,0,3.64,1.1,3.64,3.45v.21l-2.42.29v-.14c0-1.28-.48-1.72-1.9-1.72h-2.19c-1.43,0-1.94.45-1.94,1.76v.23c0,1.08.33,1.36,1.9,1.59l3.35.48c2.44.35,3.27,1.18,3.27,3.21v1.28c0,2.36-1.14,3.47-3.64,3.47h-3.72c-2.5,0-3.66-1.1-3.66-3.45h.01Z"/>
  <path class="st0" d="M323.54,32.13h3.5l4.72,13.73h-2.5l-1.22-3.64h-5.52l-1.22,3.64h-2.48l4.71-13.73h.01ZM327.36,40.14l-2.05-6.1-2.05,6.1h4.1,0Z"/>
  <path class="st0" d="M335,32.13h2.4l6.2,9.76v-9.76h2.42v13.73h-2.38l-6.21-9.8v9.8h-2.42v-13.73h-.01Z"/>
  <path class="st0" d="M353.6,34.22h-4.34v-2.09h11.11v2.09h-4.36v11.64h-2.42v-11.64h.01Z"/>
  <path class="st0" d="M374.59,35.43v7.16c0,2.36-1.14,3.47-3.64,3.47h-3.68c-2.5,0-3.66-1.1-3.66-3.47v-7.16c0-2.38,1.16-3.49,3.66-3.49h3.68c2.5,0,3.64,1.1,3.64,3.49ZM370.27,34.04h-2.32c-1.43,0-1.92.45-1.92,1.76v6.43c0,1.32.48,1.76,1.92,1.76h2.32c1.43,0,1.9-.45,1.9-1.76v-6.43c0-1.32-.46-1.76-1.9-1.76Z"/>
  <path class="st0" d="M378.16,42.61c0-.14,0-.16.02-.21l2.4-.29v.14c0,1.3.48,1.74,1.92,1.74h2.36c1.41,0,1.9-.45,1.9-1.76v-.33c0-1.06-.37-1.37-1.88-1.59l-3.35-.48c-2.42-.35-3.29-1.18-3.29-3.19v-1.2c0-2.38,1.16-3.49,3.64-3.49h3.58c2.5,0,3.64,1.1,3.64,3.45v.21l-2.42.29v-.14c0-1.28-.48-1.72-1.9-1.72h-2.19c-1.43,0-1.94.45-1.94,1.76v.23c0,1.08.33,1.36,1.9,1.59l3.35.48c2.44.35,3.27,1.18,3.27,3.21v1.28c0,2.36-1.14,3.47-3.64,3.47h-3.72c-2.5,0-3.66-1.1-3.66-3.45h.01Z"/>
</svg>