<?xml version="1.0" encoding="UTF-8"?>
<svg id="Layer_2" xmlns="http://www.w3.org/2000/svg" version="1.1" viewBox="0 0 406.11 142.98">
  <!-- Generator: Adobe Illustrator 30.0.0, SVG Export Plug-In . SVG Version: 2.1.1 Build 123)  -->
  <defs>
    <style>
      .st0, .st1 {
        fill: #203e51;
      }

      .st1 {
        stroke: #203e51;
        stroke-linecap: square;
        stroke-miterlimit: 10;
        stroke-width: 3px;
      }
    </style>
  </defs>
  <g id="Layer_1-2">
    <g>
      <path class="st0" d="M13.05,119.61v19.03c0,1.42-.42,2.5-1.27,3.23-.85.73-2.06,1.1-3.62,1.1s-2.76-.36-3.59-1.09c-.82-.73-1.24-1.79-1.24-3.2v-19.08h3.82v18.91c0,.83.34,1.25,1.03,1.25s1.05-.42,1.05-1.25v-18.91h3.82Z"/>
      <path class="st0" d="M32.77,132.18l-.25-6.22v-6.34h3.6v23.15h-3.7l-2.69-13.55h-.22l.25,6.08v7.47h-3.6v-23.15h3.92l2.5,12.57h.2,0Z"/>
      <path class="st0" d="M59.47,142.76h-3.9l-1-8.33h-1.49v8.33h-3.82v-23.15h5.19c1.5,0,2.65.39,3.45,1.16.8.78,1.2,1.9,1.2,3.37v5.32c0,1.37-.4,2.47-1.2,3.31l1.57,9.99h0ZM53.11,131.37h.71c.93,0,1.4-.58,1.4-1.74v-5.12c0-1.09-.47-1.64-1.4-1.64h-.71v8.5Z"/>
      <path class="st0" d="M72.27,119.61h3.82v23.15h-3.82s0-23.15,0-23.15Z"/>
      <path class="st0" d="M95.55,119.61h3.94l-2.57,23.15h-5.83l-2.6-23.15h3.97l1.03,13.82.44,4.63h.27l.39-4.63s.96-13.82.96-13.82Z"/>
      <path class="st0" d="M117.7,142.76l-.39-4.95-2.69-.02-.39,4.97h-3.94l2.74-23.15h5.98l2.69,23.15h-4ZM114.88,134.65h2.18l-.61-8.06-.34-3.43h-.27l-.32,3.43s-.64,8.06-.64,8.06Z"/>
      <path class="st0" d="M138.06,139.5h3.67v3.26h-7.5v-23.15h3.82v19.89h0Z"/>
      <path class="st0" d="M158.09,139.5h4.07v3.26h-7.89v-23.15h7.84v3.26h-4.02v6.42h3.72v3.16h-3.72v7.06h0Z"/>
      <path class="st0" d="M180.16,119.61c1.47,0,2.62.41,3.44,1.24.82.82,1.24,2.05,1.24,3.66v13.4c0,1.58-.42,2.79-1.25,3.61s-1.98,1.24-3.43,1.24h-5.14v-23.15h5.14,0ZM180.97,138.16v-13.94c0-.42-.1-.76-.31-.99-.21-.24-.48-.36-.82-.36h-1v16.63h.98c.36,0,.64-.12.85-.36.2-.24.31-.57.31-.99h0Z"/>
      <path class="st0" d="M222.79,127.48h-3.77v-3.77c0-.75-.37-1.13-1.1-1.13-.34,0-.61.09-.8.28s-.28.43-.28.72v3.63c0,.39.08.69.23.91.16.21.42.4.8.56l1.86.61c1.11.38,1.94.88,2.47,1.51.54.63.81,1.56.81,2.8v4.73c0,1.44-.44,2.57-1.32,3.4s-2.1,1.25-3.65,1.25-2.8-.36-3.66-1.09-1.29-1.74-1.29-3.05v-4.8h3.8v4.56c0,.34.1.63.29.86.2.23.47.34.83.34s.61-.11.81-.32.29-.48.29-.81v-4.43c0-.75-.4-1.3-1.2-1.64l-1.71-.54c-1.13-.34-1.94-.85-2.45-1.52s-.76-1.62-.76-2.87v-3.89c0-1.29.42-2.34,1.27-3.15.85-.81,2.08-1.21,3.7-1.21s2.74.36,3.58,1.08c.83.72,1.25,1.7,1.25,2.94v4.04h0Z"/>
      <path class="st0" d="M235.94,119.61h3.82v23.15h-3.82s0-23.15,0-23.15Z"/>
      <path class="st0" d="M259.49,132.18l-.25-6.22v-6.34h3.6v23.15h-3.7l-2.69-13.55h-.22l.25,6.08v7.47h-3.6v-23.15h3.92l2.5,12.57h.2-.01Z"/>
      <path class="st0" d="M285.73,131.98v6.34c0,1.54-.42,2.69-1.25,3.48-.83.78-2.04,1.18-3.63,1.18s-2.85-.45-3.71-1.35c-.86-.9-1.29-2.22-1.29-3.97v-12.96c0-1.73.43-3.05,1.29-3.94.86-.9,2.09-1.35,3.71-1.35,3.25,0,4.88,1.55,4.88,4.65v5.63h-3.77v-5.76c0-.41-.1-.73-.29-.98s-.46-.37-.78-.37-.62.12-.82.37-.31.57-.31.98v14.48c0,.41.1.73.31.98s.48.37.82.37.59-.12.78-.37.29-.57.29-.98v-6.44h3.77Z"/>
      <path class="st0" d="M302.53,139.5h4.07v3.26h-7.89v-23.15h7.84v3.26h-4.02v6.42h3.72v3.16h-3.72v7.06h0Z"/>
      <path class="st0" d="M336.95,119.54h2.45v23.22h-3.72v-17.71h-1.98v-2.4c1.13-.1,1.92-.41,2.36-.93s.75-1.25.89-2.18Z"/>
      <path class="st0" d="M354.44,130.39c-1.37-.42-2.06-1.49-2.06-3.21v-3.99c0-1.13.4-2.04,1.21-2.73s1.94-1.04,3.39-1.04,2.58.35,3.39,1.04c.81.69,1.21,1.6,1.21,2.73v3.99c0,1.75-.7,2.82-2.11,3.21v.15c1.52.34,2.28,1.43,2.28,3.26v5.12c0,1.27-.42,2.27-1.25,2.98-.83.71-2.01,1.07-3.53,1.07s-2.67-.35-3.52-1.07c-.84-.71-1.26-1.7-1.26-2.98v-5.12c0-.87.19-1.58.58-2.16.38-.57.93-.94,1.65-1.1v-.15h.02ZM358.02,138.7v-5.68c0-.88-.34-1.32-1.03-1.32s-1,.44-1,1.32v5.68c0,.82.33,1.22,1,1.22s1.03-.41,1.03-1.22ZM357.92,127.99v-4.41c0-.78-.31-1.18-.93-1.18s-.93.39-.93,1.18v4.41c0,.85.31,1.27.93,1.27s.93-.42.93-1.27h0Z"/>
      <path class="st0" d="M378.41,130.69c.67-.96,1.55-1.45,2.65-1.45.87,0,1.56.31,2.09.92s.8,1.47.8,2.56v5.66c0,1.44-.41,2.56-1.22,3.37s-1.97,1.21-3.45,1.21-2.69-.41-3.5-1.22-1.22-1.98-1.22-3.5v-14.09c0-1.49.41-2.65,1.22-3.48.82-.83,1.95-1.25,3.41-1.25s2.65.37,3.43,1.1c.78.73,1.18,1.79,1.18,3.16v4.58h-3.58v-4.65c0-.78-.33-1.18-.98-1.18-.29,0-.53.09-.7.28s-.26.44-.26.75v7.23h.15-.02ZM380.2,138.89v-5.95c0-.36-.09-.65-.27-.86s-.42-.32-.71-.32-.5.11-.67.32-.26.5-.26.86v5.81c0,.78.32,1.18.96,1.18.28,0,.51-.09.69-.28s.27-.44.27-.75h0Z"/>
      <path class="st0" d="M402.24,131.67c-.67.96-1.55,1.45-2.65,1.45-.87,0-1.56-.31-2.09-.92s-.8-1.47-.8-2.56v-5.66c0-1.44.41-2.56,1.22-3.37.82-.81,1.97-1.21,3.45-1.21s2.69.41,3.5,1.22c.82.82,1.22,1.98,1.22,3.5v14.09c0,1.49-.41,2.65-1.22,3.48-.82.83-1.95,1.25-3.41,1.25s-2.65-.37-3.43-1.1c-.78-.73-1.18-1.79-1.18-3.16v-4.58h3.58v4.65c0,.78.33,1.18.98,1.18.29,0,.53-.09.7-.28s.26-.44.26-.75v-7.23h-.15.02ZM400.45,123.46v5.95c0,.36.09.65.27.86s.42.32.71.32.5-.11.67-.32.26-.5.26-.86v-5.81c0-.78-.32-1.18-.96-1.18-.28,0-.51.09-.69.28s-.27.44-.27.75h0Z"/>
    </g>
  </g>
  <g>
    <g id="Layer_1-21" data-name="Layer_1-2">
      <g>
        <path class="st0" d="M32.29,28.78h11.75v40.66h23.29v10.05h-35.03V28.78h0Z"/>
        <path class="st0" d="M170.16,41.46v7.33c0,8.47-4.35,12.67-13.11,12.67h-15.03v18.01h-11.75V28.78h26.77c8.76,0,13.11,4.2,13.11,12.67h0ZM153.65,51.43c3.56,0,4.77-1.14,4.77-4.48v-3.63c0-3.35-1.21-4.48-4.77-4.48h-11.61v12.6s11.61,0,11.61,0Z"/>
        <path class="st0" d="M219.2,41.46v25.35c0,8.47-4.35,12.67-13.03,12.67h-26.99V28.78h26.99c8.68,0,13.03,4.2,13.03,12.67h0ZM202.68,38.83h-11.75v30.62h11.75c3.56,0,4.77-1.14,4.77-4.48v-21.65c0-3.35-1.21-4.48-4.77-4.48Z"/>
        <path class="st0" d="M237.08,29.38h2.22v10.72h6.37v1.9h-8.59v-12.62Z"/>
        <path class="st0" d="M258.62,32.4v6.58c0,2.17-1.05,3.19-3.35,3.19h-3.38c-2.3,0-3.36-1.01-3.36-3.19v-6.58c0-2.19,1.07-3.21,3.36-3.21h3.38c2.3,0,3.35,1.01,3.35,3.21ZM254.65,31.13h-2.13c-1.31,0-1.76.41-1.76,1.62v5.91c0,1.21.44,1.62,1.76,1.62h2.13c1.31,0,1.75-.41,1.75-1.62v-5.91c0-1.21-.42-1.62-1.75-1.62Z"/>
        <path class="st0" d="M261.9,39c0-.13,0-.15.02-.19l2.21-.27v.13c0,1.19.44,1.6,1.76,1.6h2.17c1.3,0,1.75-.41,1.75-1.62v-.3c0-.97-.34-1.26-1.73-1.46l-3.08-.44c-2.22-.32-3.02-1.08-3.02-2.93v-1.1c0-2.19,1.07-3.21,3.35-3.21h3.29c2.3,0,3.35,1.01,3.35,3.17v.19l-2.22.27v-.13c0-1.18-.44-1.58-1.75-1.58h-2.01c-1.31,0-1.78.41-1.78,1.62v.21c0,.99.3,1.25,1.75,1.46l3.08.44c2.24.32,3.01,1.08,3.01,2.95v1.18c0,2.17-1.05,3.19-3.35,3.19h-3.42c-2.3,0-3.36-1.01-3.36-3.17h0Z"/>
        <path class="st0" d="M246.74,51.1v1.46c0,2.19-1.05,3.21-3.35,3.21h-4.09v4.75h-2.22v-12.62h6.32c2.3,0,3.35,1.01,3.35,3.21h0ZM242.78,53.84c1.3,0,1.75-.41,1.75-1.62v-.78c0-1.21-.44-1.62-1.75-1.62h-3.47v4.03h3.47Z"/>
        <path class="st0" d="M259.81,50.91v6.58c0,2.17-1.05,3.19-3.35,3.19h-3.38c-2.3,0-3.36-1.01-3.36-3.19v-6.58c0-2.19,1.07-3.21,3.36-3.21h3.38c2.3,0,3.35,1.01,3.35,3.21ZM255.84,49.64h-2.13c-1.31,0-1.76.41-1.76,1.62v5.91c0,1.21.44,1.62,1.76,1.62h2.13c1.31,0,1.75-.41,1.75-1.62v-5.91c0-1.21-.42-1.62-1.75-1.62Z"/>
        <path class="st0" d="M263.25,47.89h2.22v10.72h6.37v1.9h-8.59v-12.62Z"/>
        <path class="st0" d="M274.83,47.89h2.22v12.62h-2.22v-12.62Z"/>
        <path class="st0" d="M280.47,57.5v-6.58c0-2.19,1.07-3.21,3.36-3.21h3.38c2.3,0,3.35,1.01,3.35,3.17v.19l-2.22.27v-.13c0-1.18-.42-1.58-1.75-1.58h-2.13c-1.31,0-1.76.41-1.76,1.62v5.91c0,1.21.44,1.62,1.76,1.62h2.13c1.31,0,1.75-.41,1.75-1.6v-.13l2.22.27v.19c0,2.15-1.05,3.17-3.35,3.17h-3.38c-2.3,0-3.36-1.01-3.36-3.19h0Z"/>
        <path class="st0" d="M296.1,49.81v3.25h5.89v1.9h-5.89v3.63h6.64v1.9h-8.86v-12.62h8.86v1.92h-6.64Z"/>
        <path class="st0" d="M246.77,69.61v6.23c0,2.17-1.07,3.19-3.35,3.19h-6.35v-12.62h6.35c2.28,0,3.35,1.01,3.35,3.21h0ZM242.78,68.33h-3.48v8.8h3.48c1.31,0,1.76-.41,1.76-1.62v-5.55c0-1.21-.44-1.62-1.76-1.62h0Z"/>
        <path class="st0" d="M252.43,68.33v3.25h5.89v1.9h-5.89v3.63h6.64v1.9h-8.86v-12.62h8.86v1.92h-6.64Z"/>
        <path class="st0" d="M271.81,69.61v1.46c0,2.19-1.05,3.21-3.35,3.21h-4.09v4.75h-2.22v-12.62h6.31c2.3,0,3.35,1.01,3.35,3.21h0ZM267.84,72.35c1.3,0,1.75-.41,1.75-1.62v-.78c0-1.21-.44-1.62-1.75-1.62h-3.47v4.03h3.47Z"/>
        <path class="st0" d="M277.5,66.41h3.23l4.34,12.62h-2.3l-1.12-3.35h-5.07l-1.12,3.35h-2.28l4.33-12.62ZM281.01,73.77l-1.88-5.61-1.88,5.61h3.78,0Z"/>
        <path class="st0" d="M288.05,66.41h6.35c2.28,0,3.35,1.01,3.35,3.21v1.37c0,1.94-.85,2.95-2.64,3.15l3.72,4.89h-2.62l-3.79-4.86h-2.15v4.86h-2.22v-12.62ZM293.76,72.25c1.31,0,1.76-.4,1.76-1.6v-.7c0-1.21-.44-1.62-1.76-1.62h-3.48v3.92h3.48Z"/>
        <path class="st0" d="M304.69,68.33h-3.99v-1.92h10.21v1.92h-4.01v10.7h-2.22v-10.7h0Z"/>
        <path class="st0" d="M326.33,66.41v12.62h-2.22v-8.97l-3.56,5.5h-.85l-3.58-5.53v9.01h-2.22v-12.62h2.21l4.03,6.23,4.03-6.23h2.19,0Z"/>
        <path class="st0" d="M332.12,68.33v3.25h5.89v1.9h-5.89v3.63h6.64v1.9h-8.86v-12.62h8.86v1.92h-6.64Z"/>
        <path class="st0" d="M341.81,66.41h2.21l5.7,8.97v-8.97h2.22v12.62h-2.19l-5.72-9.01v9.01h-2.22v-12.62Z"/>
        <path class="st0" d="M358.9,68.33h-3.99v-1.92h10.22v1.92h-4.01v10.7h-2.22v-10.7Z"/>
        <path class="st0" d="M404.96,107.1H0V-.15h404.96v107.25ZM6.86,100.25h391.24V6.71H6.86v93.54Z"/>
      </g>
    </g>
    <path class="st1" d="M78.23,66.42c0-.48,0-.54.07-.71l8.62-.98v.48c0,4.41,1.72,5.91,6.9,5.91h8.48c5.07,0,6.83-1.53,6.83-5.97v-1.12c0-3.6-1.33-4.65-6.76-5.4l-12.04-1.63c-8.7-1.19-11.82-4-11.82-10.83v-4.07c0-8.08,4.17-11.84,13.08-11.84h12.86c8.98,0,13.08,3.73,13.08,11.71v.71l-8.7.98v-.48c0-4.34-1.72-5.84-6.83-5.84h-7.87c-5.14,0-6.97,1.53-6.97,5.97v.78c0,3.67,1.19,4.62,6.83,5.4l12.04,1.63c8.77,1.19,11.75,4,11.75,10.89v4.34c0,8.01-4.1,11.78-13.08,11.78h-13.37c-8.98,0-13.15-3.73-13.15-11.71h.04Z"/>
    <path class="st0" d="M279.91,39c0-.13,0-.15.02-.19l2.21-.27v.13c0,1.19.44,1.6,1.76,1.6h2.17c1.3,0,1.75-.41,1.75-1.62v-.3c0-.97-.34-1.26-1.73-1.46l-3.08-.44c-2.22-.32-3.02-1.08-3.02-2.93v-1.1c0-2.19,1.07-3.21,3.35-3.21h3.29c2.3,0,3.35,1.01,3.35,3.17v.19l-2.22.27v-.13c0-1.18-.44-1.58-1.75-1.58h-2.01c-1.31,0-1.78.41-1.78,1.62v.21c0,.99.3,1.25,1.75,1.46l3.08.44c2.24.32,3.01,1.08,3.01,2.95v1.18c0,2.17-1.05,3.19-3.35,3.19h-3.42c-2.3,0-3.36-1.01-3.36-3.17h0Z"/>
    <path class="st0" d="M297.35,29.38h3.22l4.34,12.62h-2.3l-1.12-3.35h-5.07l-1.12,3.35h-2.28l4.33-12.62h0ZM300.86,36.74l-1.88-5.61-1.88,5.61h3.77,0Z"/>
    <path class="st0" d="M307.88,29.38h2.21l5.7,8.97v-8.97h2.22v12.62h-2.19l-5.71-9.01v9.01h-2.22v-12.62h0Z"/>
    <path class="st0" d="M324.98,31.3h-3.99v-1.92h10.21v1.92h-4.01v10.7h-2.22v-10.7h0Z"/>
    <path class="st0" d="M344.27,32.41v6.58c0,2.17-1.05,3.19-3.35,3.19h-3.38c-2.3,0-3.36-1.01-3.36-3.19v-6.58c0-2.19,1.07-3.21,3.36-3.21h3.38c2.3,0,3.35,1.01,3.35,3.21ZM340.3,31.13h-2.13c-1.31,0-1.76.41-1.76,1.62v5.91c0,1.21.44,1.62,1.76,1.62h2.13c1.31,0,1.75-.41,1.75-1.62v-5.91c0-1.21-.42-1.62-1.75-1.62Z"/>
    <path class="st0" d="M347.55,39.01c0-.13,0-.15.02-.19l2.21-.27v.13c0,1.19.44,1.6,1.76,1.6h2.17c1.3,0,1.75-.41,1.75-1.62v-.3c0-.97-.34-1.26-1.73-1.46l-3.08-.44c-2.22-.32-3.02-1.08-3.02-2.93v-1.1c0-2.19,1.07-3.21,3.35-3.21h3.29c2.3,0,3.35,1.01,3.35,3.17v.19l-2.22.27v-.13c0-1.18-.44-1.58-1.75-1.58h-2.01c-1.31,0-1.78.41-1.78,1.62v.21c0,.99.3,1.25,1.75,1.46l3.08.44c2.24.32,3.01,1.08,3.01,2.95v1.18c0,2.17-1.05,3.19-3.35,3.19h-3.42c-2.3,0-3.36-1.01-3.36-3.17h0Z"/>
  </g>
</svg>