<svg width="255" height="68" viewBox="0 0 255 68" fill="none" xmlns="http://www.w3.org/2000/svg">
<g clip-path="url(#clip0_90_2)">
<path d="M20.3303 18.3431H27.7321V44.1214H42.3968V50.4902H20.3361V18.3431H20.3303Z" fill="#203E51"/>
<path d="M107.149 26.3784V31.0283C107.149 36.4007 104.412 39.0636 98.8969 39.0636H89.4349V50.4844H82.0331V18.3431H98.8911C104.406 18.3431 107.144 21.006 107.144 26.3784H107.149ZM96.7498 32.7006C98.9895 32.7006 99.7534 31.9781 99.7534 29.8571V27.5555C99.7534 25.4345 98.9895 24.7119 96.7498 24.7119H89.4407V32.7006H96.7498Z" fill="#203E51"/>
<path d="M138.03 26.3784V42.4491C138.03 47.8215 135.292 50.4844 129.824 50.4844H112.827V18.3431H129.824C135.292 18.3431 138.03 21.006 138.03 26.3784ZM127.624 24.7119H120.223V44.1272H127.624C129.864 44.1272 130.628 43.4047 130.628 41.2837V27.5555C130.628 25.4345 129.864 24.7119 127.624 24.7119Z" fill="#203E51"/>
<path d="M149.286 18.7218H150.686V25.516H154.697V26.7221H149.286V18.7218Z" fill="#203E51"/>
<path d="M162.851 20.6389V24.811C162.851 26.1862 162.191 26.8329 160.744 26.8329H158.615C157.168 26.8329 156.497 26.192 156.497 24.811V20.6389C156.497 19.2521 157.168 18.6053 158.615 18.6053H160.744C162.191 18.6053 162.851 19.2463 162.851 20.6389ZM160.351 19.829H159.008C158.181 19.829 157.897 20.0912 157.897 20.8545V24.6012C157.897 25.3704 158.175 25.6268 159.008 25.6268H160.351C161.178 25.6268 161.45 25.3646 161.45 24.6012V20.8545C161.45 20.0854 161.184 19.829 160.351 19.829Z" fill="#203E51"/>
<path d="M164.917 24.8226C164.917 24.741 164.917 24.7293 164.928 24.7002L166.317 24.5312V24.6128C166.317 25.3703 166.595 25.6267 167.429 25.6267H168.794C169.61 25.6267 169.894 25.3645 169.894 24.6011V24.4089C169.894 23.7912 169.68 23.6106 168.806 23.4824L166.867 23.2027C165.467 22.9987 164.963 22.5151 164.963 21.3439V20.6447C164.963 19.2579 165.635 18.6111 167.07 18.6111H169.142C170.588 18.6111 171.248 19.252 171.248 20.6214V20.7437L169.848 20.9127V20.8311C169.848 20.0853 169.57 19.8289 168.748 19.8289H167.481C166.653 19.8289 166.358 20.0911 166.358 20.8544V20.9885C166.358 21.6178 166.549 21.7809 167.457 21.9149L169.396 22.1946C170.808 22.3986 171.289 22.8822 171.289 24.0651V24.8109C171.289 26.1861 170.629 26.8328 169.182 26.8328H167.029C165.582 26.8328 164.911 26.1919 164.911 24.8226H164.917Z" fill="#203E51"/>
<path d="M155.368 32.4908V33.4173C155.368 34.8041 154.708 35.4508 153.262 35.4508H150.686V38.4634H149.286V30.463H153.267C154.714 30.463 155.374 31.104 155.374 32.4966L155.368 32.4908ZM152.874 34.2272C153.69 34.2272 153.973 33.965 153.973 33.2017V32.7064C153.973 31.9372 153.696 31.6808 152.874 31.6808H150.686V34.233H152.874V34.2272Z" fill="#203E51"/>
<path d="M163.597 32.3743V36.5464C163.597 37.9215 162.938 38.5683 161.491 38.5683H159.361C157.914 38.5683 157.243 37.9273 157.243 36.5464V32.3743C157.243 30.9875 157.914 30.3407 159.361 30.3407H161.491C162.938 30.3407 163.597 30.9817 163.597 32.3743ZM161.097 31.5643H159.755C158.927 31.5643 158.644 31.8266 158.644 32.5899V36.3366C158.644 37.1057 158.921 37.3621 159.755 37.3621H161.097C161.925 37.3621 162.197 37.0999 162.197 36.3366V32.5899C162.197 31.8207 161.931 31.5643 161.097 31.5643Z" fill="#203E51"/>
<path d="M165.768 30.4573H167.168V37.2514H171.179V38.4576H165.768V30.4573Z" fill="#203E51"/>
<path d="M173.059 30.4573H174.46V38.4576H173.059V30.4573Z" fill="#203E51"/>
<path d="M176.613 36.5522V32.3801C176.613 30.9933 177.284 30.3466 178.731 30.3466H180.861C182.307 30.3466 182.967 30.9875 182.967 32.3568V32.4792L181.567 32.6482V32.5666C181.567 31.8208 181.3 31.5644 180.467 31.5644H179.124C178.297 31.5644 178.013 31.8266 178.013 32.5899V36.3366C178.013 37.1058 178.291 37.3622 179.124 37.3622H180.467C181.295 37.3622 181.567 37.0999 181.567 36.3483V36.2667L182.967 36.4357V36.558C182.967 37.9215 182.307 38.5683 180.861 38.5683H178.731C177.284 38.5683 176.613 37.9274 176.613 36.5464V36.5522Z" fill="#203E51"/>
<path d="M186.451 31.6751V33.7378H190.161V34.944H186.451V37.2456H190.629V38.4518H185.051V30.4514H190.629V31.6692H186.451V31.6751Z" fill="#203E51"/>
<path d="M155.391 44.2263V48.1769C155.391 49.552 154.72 50.1988 153.285 50.1988H149.286V42.1985H153.285C154.72 42.1985 155.391 42.8394 155.391 44.2321V44.2263ZM152.88 43.4163H150.686V48.9927H152.88C153.707 48.9927 153.991 48.7305 153.991 47.9671V44.4477C153.991 43.6785 153.713 43.4221 152.88 43.4221V43.4163Z" fill="#203E51"/>
<path d="M158.95 43.4163V45.479H162.66V46.6852H158.95V48.9868H163.129V50.193H157.55V42.1926H163.129V43.4104H158.95V43.4163Z" fill="#203E51"/>
<path d="M171.156 44.2263V45.1527C171.156 46.5395 170.496 47.1863 169.049 47.1863H166.474V50.1988H165.073V42.1985H169.049C170.496 42.1985 171.156 42.8394 171.156 44.2321V44.2263ZM168.655 45.9627C169.471 45.9627 169.755 45.7005 169.755 44.9371V44.4418C169.755 43.6727 169.477 43.4163 168.655 43.4163H166.468V45.9685H168.655V45.9627Z" fill="#203E51"/>
<path d="M174.738 42.1985H176.769L179.501 50.1988H178.054L177.348 48.0778H174.153L173.447 50.1988H172.012L174.738 42.1985ZM176.948 46.8658L175.762 43.3114L174.576 46.8658H176.954H176.948Z" fill="#203E51"/>
<path d="M181.381 42.1985H185.38C186.816 42.1985 187.487 42.8394 187.487 44.2321V45.1003C187.487 46.3298 186.949 46.9707 185.826 47.0989L188.17 50.1988H186.52L184.136 47.1164H182.782V50.1988H181.381V42.1985ZM184.975 45.8986C185.803 45.8986 186.086 45.648 186.086 44.8847V44.4418C186.086 43.6727 185.809 43.4163 184.975 43.4163H182.782V45.8986H184.975Z" fill="#203E51"/>
<path d="M191.862 43.4163H189.35V42.1985H195.78V43.4163H193.257V50.1988H191.856V43.4163H191.862Z" fill="#203E51"/>
<path d="M205.485 42.1985V50.1988H204.085V44.5118L201.845 47.9963H201.307L199.055 44.4885V50.1988H197.655V42.1985H199.044L201.579 46.1491L204.113 42.1985H205.491H205.485Z" fill="#203E51"/>
<path d="M209.131 43.4163V45.479H212.84V46.6852H209.131V48.9868H213.309V50.193H207.73V42.1926H213.309V43.4104H209.131V43.4163Z" fill="#203E51"/>
<path d="M215.236 42.1985H216.625L220.213 47.8855V42.1985H221.614V50.1988H220.236L216.637 44.4885V50.1988H215.236V42.1985Z" fill="#203E51"/>
<path d="M225.995 43.4163H223.483V42.1985H229.918V43.4163H227.395V50.1988H225.995V43.4163Z" fill="#203E51"/>
<path d="M255 68H0V0H255V68ZM4.31723 63.6531H250.677V4.34687H4.31723V63.6531Z" fill="#203E51"/>
<path d="M49.2604 42.2042C49.2604 41.9012 49.2604 41.8604 49.3067 41.7497L54.7351 41.1263V41.4293C54.7351 44.2262 55.8231 45.176 59.0812 45.176H64.4228C67.6115 45.176 68.7227 44.2087 68.7227 41.3885V40.6776C68.7227 38.3993 67.8835 37.7292 64.4691 37.2572L56.8879 36.2258C51.4132 35.4742 49.4456 33.6853 49.4456 29.3617V26.7804C49.4456 21.6586 52.073 19.2695 57.6807 19.2695H65.7828C71.4368 19.2695 74.0179 21.6353 74.0179 26.693V27.1475L68.5433 27.771V27.468C68.5433 24.7119 67.4553 23.7679 64.2434 23.7679H59.2896C56.0545 23.7679 54.8971 24.7352 54.8971 27.5554V28.0507C54.8971 30.3756 55.6437 30.9758 59.197 31.4711L66.7782 32.5024C72.2991 33.2541 74.18 35.043 74.18 39.4073V42.1634C74.18 47.2387 71.5989 49.6277 65.9448 49.6277H57.5245C51.8704 49.6277 49.243 47.262 49.243 42.2042H49.2662H49.2604Z" fill="#203E51" stroke="#203E51" stroke-width="3" stroke-miterlimit="10" stroke-linecap="square"/>
<path d="M176.26 24.8226C176.26 24.741 176.26 24.7293 176.271 24.7002L177.66 24.5312V24.6128C177.66 25.3703 177.938 25.6267 178.771 25.6267H180.137C180.953 25.6267 181.237 25.3645 181.237 24.6011V24.4089C181.237 23.7912 181.023 23.6106 180.149 23.4824L178.21 23.2027C176.81 22.9987 176.306 22.5151 176.306 21.3439V20.6447C176.306 19.2579 176.977 18.6111 178.413 18.6111H180.484C181.931 18.6111 182.591 19.252 182.591 20.6214V20.7437L181.19 20.9127V20.8311C181.19 20.0853 180.913 19.8289 180.091 19.8289H178.824C177.996 19.8289 177.701 20.0911 177.701 20.8544V20.9885C177.701 21.6178 177.892 21.7809 178.8 21.9149L180.739 22.1946C182.151 22.3986 182.631 22.8822 182.631 24.0651V24.8109C182.631 26.1861 181.972 26.8328 180.525 26.8328H178.372C176.925 26.8328 176.254 26.1919 176.254 24.8226H176.26Z" fill="#203E51"/>
<path d="M187.238 18.7218H189.264L191.995 26.7221H190.548L189.842 24.6012H186.648L185.942 26.7221H184.506L187.232 18.7218H187.238ZM189.449 23.3892L188.262 19.8347L187.076 23.3892H189.449Z" fill="#203E51"/>
<path d="M193.87 18.7218H195.259L198.847 24.4089V18.7218H200.248V26.7221H198.87L195.276 21.0118V26.7221H193.876V18.7218H193.87Z" fill="#203E51"/>
<path d="M204.634 19.9396H202.123V18.7218H208.552V19.9396H206.029V26.7221H204.628V19.9396H204.634Z" fill="#203E51"/>
<path d="M216.782 20.6447V24.8167C216.782 26.1919 216.122 26.8387 214.675 26.8387H212.545C211.099 26.8387 210.427 26.1977 210.427 24.8167V20.6447C210.427 19.2579 211.099 18.6111 212.545 18.6111H214.675C216.122 18.6111 216.782 19.252 216.782 20.6447ZM214.282 19.8347H212.939C212.111 19.8347 211.828 20.0969 211.828 20.8603V24.607C211.828 25.3761 212.106 25.6325 212.939 25.6325H214.282C215.109 25.6325 215.381 25.3703 215.381 24.607V20.8603C215.381 20.0911 215.115 19.8347 214.282 19.8347Z" fill="#203E51"/>
<path d="M218.848 24.8284C218.848 24.7468 218.848 24.7352 218.859 24.7061L220.248 24.5371V24.6187C220.248 25.3762 220.526 25.6325 221.359 25.6325H222.725C223.541 25.6325 223.825 25.3703 223.825 24.607V24.4147C223.825 23.7971 223.61 23.6164 222.737 23.4882L220.798 23.2085C219.397 23.0046 218.894 22.521 218.894 21.3498V20.6505C218.894 19.2637 219.565 18.6169 221 18.6169H223.072C224.519 18.6169 225.179 19.2579 225.179 20.6272V20.7496L223.778 20.9186V20.837C223.778 20.0911 223.5 19.8348 222.679 19.8348H221.411C220.584 19.8348 220.289 20.097 220.289 20.8603V20.9943C220.289 21.6236 220.48 21.7868 221.388 21.9208L223.327 22.2005C224.739 22.4044 225.219 22.8881 225.219 24.0709V24.8168C225.219 26.1919 224.56 26.8387 223.113 26.8387H220.96C219.513 26.8387 218.842 26.1977 218.842 24.8284H218.848Z" fill="#203E51"/>
</g>
<defs>
<clipPath id="clip0_90_2">
<rect width="255" height="68" fill="white"/>
</clipPath>
</defs>
</svg>
