<svg width="925" height="244" viewBox="0 0 925 244" fill="none" xmlns="http://www.w3.org/2000/svg">
<path d="M18.6 31.82C22.24 32.38 24.06 35.08 24.06 39.92V52.28C24.06 55.52 23.1 58.04 21.18 59.84C19.26 61.6 16.6 62.48 13.2 62.48C9.76 62.48 7.08 61.62 5.16 59.9C3.28 58.14 2.34 55.64 2.34 52.4V38.24H9.9V52.22C9.9 53.38 10.2 54.28 10.8 54.92C11.4 55.52 12.18 55.82 13.14 55.82C14.06 55.82 14.8 55.48 15.36 54.8C15.92 54.08 16.2 53.06 16.2 51.74V39.44C16.2 37.92 15.9 36.84 15.3 36.2C14.7 35.56 13.78 35.24 12.54 35.24H8.04L7.02 29.06H12.36C13.76 29.06 14.68 28.74 15.12 28.1C15.6 27.42 15.84 26.36 15.84 24.92V14.96C15.84 13.88 15.56 13.04 15 12.44C14.48 11.8 13.78 11.48 12.9 11.48C11.98 11.48 11.24 11.8 10.68 12.44C10.12 13.04 9.84 13.92 9.84 15.08V26.36H2.4V14.96C2.4 11.68 3.34 9.18 5.22 7.46C7.1 5.7 9.82 4.82 13.38 4.82C16.5 4.82 18.98 5.64 20.82 7.28C22.7 8.88 23.64 11.12 23.64 14V23.66C23.64 25.82 23.26 27.52 22.5 28.76C21.74 29.96 20.44 30.86 18.6 31.46V31.82ZM37.7128 52.82V62H29.6728V52.82H37.7128ZM61.6725 5.3C61.8325 18.94 58.1325 31.06 50.5725 41.66L50.8125 42.2H56.3325V38.12C57.7725 36.4 58.9925 34.18 59.9925 31.46C60.9925 28.7 61.6325 25.88 61.9125 23H64.1325V42.14H68.6325V48.32H64.1325V62H56.3325V48.32H41.3925V42.56C43.2725 39.48 44.7525 36.94 45.8325 34.94C46.9525 32.9 48.2325 30.22 49.6725 26.9C51.1125 23.58 52.1725 20.14 52.8525 16.58C53.5725 12.98 53.9325 9.22 53.9325 5.3H61.6725Z" fill="#203E51"/>
<path d="M8.4 128.12H13.5V185H5.64V140.54H0.42V135.8C3.18 135.52 5.1 134.74 6.18 133.46C7.26 132.14 8 130.36 8.4 128.12ZM41.1263 178.88V185H18.2663V182.36C18.2663 179.2 18.7463 176.12 19.7063 173.12C20.7063 170.12 21.9063 167.5 23.3063 165.26C24.7463 162.98 26.1663 160.82 27.5663 158.78C29.0063 156.7 30.2063 154.66 31.1663 152.66C32.1663 150.62 32.6663 148.72 32.6663 146.96V138.14C32.6663 135.7 31.6663 134.48 29.6663 134.48C28.7063 134.48 27.9263 134.82 27.3263 135.5C26.7263 136.14 26.4263 137.06 26.4263 138.26V149.36H18.8663V137.96C18.8663 134.88 19.8463 132.42 21.8063 130.58C23.8063 128.74 26.6063 127.82 30.2063 127.82C33.2863 127.82 35.7863 128.66 37.7063 130.34C39.6263 132.02 40.5863 134.24 40.5863 137V145.16C40.5863 147.6 40.1263 150.12 39.2063 152.72C38.2863 155.32 37.1663 157.76 35.8463 160.04C34.5263 162.28 33.1863 164.46 31.8262 166.58C30.5063 168.7 29.3863 170.84 28.4663 173C27.5463 175.16 27.0863 177.12 27.0863 178.88H41.1263Z" fill="#203E51"/>
<path d="M391.36 5.3C391.52 18.94 387.82 31.06 380.26 41.66L380.5 42.2H386.02V38.12C387.46 36.4 388.68 34.18 389.68 31.46C390.68 28.7 391.32 25.88 391.6 23H393.82V42.14H398.32V48.32H393.82V62H386.02V48.32H371.08V42.56C372.96 39.48 374.44 36.94 375.52 34.94C376.64 32.9 377.92 30.22 379.36 26.9C380.8 23.58 381.86 20.14 382.54 16.58C383.26 12.98 383.62 9.22 383.62 5.3H391.36ZM419.695 45.8L420.895 33.32L424.735 5.3H436.195V62H428.755L428.815 39.86L429.175 21.14H428.635L423.475 62H415.015L410.215 21.14H409.675L410.035 39.86V62H402.595V5.3H414.235L417.955 33.32L419.215 45.8H419.695Z" fill="#203E51"/>
<path d="M391.36 128.3C391.52 141.94 387.82 154.06 380.26 164.66L380.5 165.2H386.02V161.12C387.46 159.4 388.68 157.18 389.68 154.46C390.68 151.7 391.32 148.88 391.6 146H393.82V165.14H398.32V171.32H393.82V185H386.02V171.32H371.08V165.56C372.96 162.48 374.44 159.94 375.52 157.94C376.64 155.9 377.92 153.22 379.36 149.9C380.8 146.58 381.86 143.14 382.54 139.58C383.26 135.98 383.62 132.22 383.62 128.3H391.36ZM407.755 128.12H412.855V185H404.995V140.54H399.775V135.8C402.535 135.52 404.455 134.74 405.535 133.46C406.615 132.14 407.355 130.36 407.755 128.12Z" fill="#203E51"/>
<path d="M459.758 35V17.8203H467.059C468.895 17.8203 470.227 17.9766 471.055 18.2891C471.891 18.5938 472.559 19.1406 473.059 19.9297C473.559 20.7188 473.809 21.6211 473.809 22.6367C473.809 23.9258 473.43 24.9922 472.672 25.8359C471.914 26.6719 470.781 27.1992 469.273 27.418C470.023 27.8555 470.641 28.3359 471.125 28.8594C471.617 29.3828 472.277 30.3125 473.105 31.6484L475.203 35H471.055L468.547 31.2617C467.656 29.9258 467.047 29.0859 466.719 28.7422C466.391 28.3906 466.043 28.1523 465.676 28.0273C465.309 27.8945 464.727 27.8281 463.93 27.8281H463.227V35H459.758ZM463.227 25.0859H465.793C467.457 25.0859 468.496 25.0156 468.91 24.875C469.324 24.7344 469.648 24.4922 469.883 24.1484C470.117 23.8047 470.234 23.375 470.234 22.8594C470.234 22.2812 470.078 21.8164 469.766 21.4648C469.461 21.1055 469.027 20.8789 468.465 20.7852C468.184 20.7461 467.34 20.7266 465.934 20.7266H463.227V25.0859ZM484.033 31.0391L487.315 31.5898C486.893 32.793 486.225 33.7109 485.311 34.3438C484.405 34.9688 483.268 35.2812 481.901 35.2812C479.737 35.2812 478.135 34.5742 477.096 33.1602C476.276 32.0273 475.865 30.5977 475.865 28.8711C475.865 26.8086 476.405 25.1953 477.483 24.0312C478.561 22.8594 479.924 22.2734 481.573 22.2734C483.424 22.2734 484.885 22.8867 485.955 24.1133C487.026 25.332 487.537 27.2031 487.49 29.7266H479.24C479.264 30.7031 479.53 31.4648 480.037 32.0117C480.545 32.5508 481.178 32.8203 481.936 32.8203C482.451 32.8203 482.885 32.6797 483.237 32.3984C483.588 32.1172 483.854 31.6641 484.033 31.0391ZM484.221 27.7109C484.198 26.7578 483.951 26.0352 483.483 25.543C483.014 25.043 482.444 24.793 481.772 24.793C481.053 24.793 480.459 25.0547 479.99 25.5781C479.522 26.1016 479.291 26.8125 479.299 27.7109H484.221ZM488.786 31.4492L492.09 30.9453C492.231 31.5859 492.516 32.0742 492.946 32.4102C493.375 32.7383 493.977 32.9023 494.75 32.9023C495.602 32.9023 496.243 32.7461 496.672 32.4336C496.961 32.2148 497.106 31.9219 497.106 31.5547C497.106 31.3047 497.028 31.0977 496.872 30.9336C496.708 30.7773 496.34 30.6328 495.77 30.5C493.114 29.9141 491.43 29.3789 490.719 28.8945C489.735 28.2227 489.243 27.2891 489.243 26.0938C489.243 25.0156 489.668 24.1094 490.52 23.375C491.372 22.6406 492.692 22.2734 494.481 22.2734C496.184 22.2734 497.45 22.5508 498.278 23.1055C499.106 23.6602 499.676 24.4805 499.989 25.5664L496.883 26.1406C496.75 25.6562 496.497 25.2852 496.122 25.0273C495.754 24.7695 495.227 24.6406 494.54 24.6406C493.672 24.6406 493.051 24.7617 492.676 25.0039C492.426 25.1758 492.301 25.3984 492.301 25.6719C492.301 25.9062 492.411 26.1055 492.629 26.2695C492.926 26.4883 493.95 26.7969 495.7 27.1953C497.458 27.5938 498.684 28.082 499.379 28.6602C500.067 29.2461 500.411 30.0625 500.411 31.1094C500.411 32.25 499.934 33.2305 498.981 34.0508C498.028 34.8711 496.618 35.2812 494.75 35.2812C493.055 35.2812 491.711 34.9375 490.719 34.25C489.735 33.5625 489.09 32.6289 488.786 31.4492ZM503.065 20.8672V17.8203H506.358V20.8672H503.065ZM503.065 35V22.5547H506.358V35H503.065ZM520.919 35H517.86V33.1719C517.353 33.8828 516.751 34.4141 516.056 34.7656C515.368 35.1094 514.673 35.2812 513.97 35.2812C512.54 35.2812 511.313 34.707 510.29 33.5586C509.274 32.4023 508.767 30.793 508.767 28.7305C508.767 26.6211 509.263 25.0195 510.255 23.9258C511.247 22.8242 512.501 22.2734 514.017 22.2734C515.407 22.2734 516.61 22.8516 517.626 24.0078V17.8203H520.919V35ZM512.13 28.5078C512.13 29.8359 512.313 30.7969 512.681 31.3906C513.212 32.25 513.954 32.6797 514.907 32.6797C515.665 32.6797 516.31 32.3594 516.841 31.7188C517.372 31.0703 517.638 30.1055 517.638 28.8242C517.638 27.3945 517.38 26.3672 516.864 25.7422C516.349 25.1094 515.688 24.793 514.884 24.793C514.103 24.793 513.446 25.1055 512.915 25.7305C512.392 26.3477 512.13 27.2734 512.13 28.5078ZM531.144 31.0391L534.425 31.5898C534.003 32.793 533.335 33.7109 532.421 34.3438C531.515 34.9688 530.378 35.2812 529.011 35.2812C526.847 35.2812 525.245 34.5742 524.206 33.1602C523.386 32.0273 522.976 30.5977 522.976 28.8711C522.976 26.8086 523.515 25.1953 524.593 24.0312C525.671 22.8594 527.034 22.2734 528.683 22.2734C530.534 22.2734 531.995 22.8867 533.066 24.1133C534.136 25.332 534.648 27.2031 534.601 29.7266H526.351C526.374 30.7031 526.64 31.4648 527.148 32.0117C527.655 32.5508 528.288 32.8203 529.046 32.8203C529.562 32.8203 529.995 32.6797 530.347 32.3984C530.698 32.1172 530.964 31.6641 531.144 31.0391ZM531.331 27.7109C531.308 26.7578 531.062 26.0352 530.593 25.543C530.124 25.043 529.554 24.793 528.882 24.793C528.163 24.793 527.57 25.0547 527.101 25.5781C526.632 26.1016 526.402 26.8125 526.409 27.7109H531.331ZM548.376 35H545.083V28.6484C545.083 27.3047 545.013 26.4375 544.872 26.0469C544.732 25.6484 544.501 25.3398 544.181 25.1211C543.869 24.9023 543.49 24.793 543.044 24.793C542.474 24.793 541.962 24.9492 541.509 25.2617C541.056 25.5742 540.744 25.9883 540.572 26.5039C540.408 27.0195 540.326 27.9727 540.326 29.3633V35H537.033V22.5547H540.091V24.3828C541.177 22.9766 542.544 22.2734 544.193 22.2734C544.919 22.2734 545.583 22.4062 546.185 22.6719C546.787 22.9297 547.24 23.2617 547.544 23.668C547.857 24.0742 548.072 24.5352 548.189 25.0508C548.314 25.5664 548.376 26.3047 548.376 27.2656V35ZM557.195 22.5547V25.1797H554.945V30.1953C554.945 31.2109 554.965 31.8047 555.004 31.9766C555.05 32.1406 555.148 32.2773 555.297 32.3867C555.453 32.4961 555.64 32.5508 555.859 32.5508C556.164 32.5508 556.605 32.4453 557.183 32.2344L557.465 34.7891C556.699 35.1172 555.832 35.2812 554.863 35.2812C554.269 35.2812 553.734 35.1836 553.257 34.9883C552.781 34.7852 552.429 34.5273 552.203 34.2148C551.984 33.8945 551.832 33.4648 551.746 32.9258C551.675 32.543 551.64 31.7695 551.64 30.6055V25.1797H550.129V22.5547H551.64V20.082L554.945 18.1602V22.5547H557.195ZM558.08 31.4492L561.385 30.9453C561.525 31.5859 561.81 32.0742 562.24 32.4102C562.67 32.7383 563.271 32.9023 564.045 32.9023C564.896 32.9023 565.537 32.7461 565.967 32.4336C566.256 32.2148 566.4 31.9219 566.4 31.5547C566.4 31.3047 566.322 31.0977 566.166 30.9336C566.002 30.7773 565.635 30.6328 565.064 30.5C562.408 29.9141 560.725 29.3789 560.014 28.8945C559.029 28.2227 558.537 27.2891 558.537 26.0938C558.537 25.0156 558.963 24.1094 559.814 23.375C560.666 22.6406 561.986 22.2734 563.775 22.2734C565.478 22.2734 566.744 22.5508 567.572 23.1055C568.4 23.6602 568.971 24.4805 569.283 25.5664L566.178 26.1406C566.045 25.6562 565.791 25.2852 565.416 25.0273C565.049 24.7695 564.521 24.6406 563.834 24.6406C562.967 24.6406 562.346 24.7617 561.971 25.0039C561.721 25.1758 561.596 25.3984 561.596 25.6719C561.596 25.9062 561.705 26.1055 561.924 26.2695C562.221 26.4883 563.244 26.7969 564.994 27.1953C566.752 27.5938 567.978 28.082 568.674 28.6602C569.361 29.2461 569.705 30.0625 569.705 31.1094C569.705 32.25 569.228 33.2305 568.275 34.0508C567.322 34.8711 565.912 35.2812 564.045 35.2812C562.35 35.2812 561.006 34.9375 560.014 34.25C559.029 33.5625 558.385 32.6289 558.08 31.4492ZM577.944 29.4102L581.319 29.082C581.522 30.2148 581.932 31.0469 582.549 31.5781C583.174 32.1094 584.014 32.375 585.069 32.375C586.186 32.375 587.026 32.1406 587.588 31.6719C588.159 31.1953 588.444 30.6406 588.444 30.0078C588.444 29.6016 588.323 29.2578 588.08 28.9766C587.846 28.6875 587.432 28.4375 586.838 28.2266C586.432 28.0859 585.506 27.8359 584.061 27.4766C582.202 27.0156 580.897 26.4492 580.147 25.7773C579.092 24.832 578.565 23.6797 578.565 22.3203C578.565 21.4453 578.811 20.6289 579.303 19.8711C579.803 19.1055 580.518 18.5234 581.448 18.125C582.385 17.7266 583.514 17.5273 584.834 17.5273C586.991 17.5273 588.612 18 589.698 18.9453C590.791 19.8906 591.366 21.1523 591.42 22.7305L587.952 22.8828C587.803 22 587.483 21.3672 586.991 20.9844C586.506 20.5938 585.776 20.3984 584.799 20.3984C583.791 20.3984 583.002 20.6055 582.432 21.0195C582.065 21.2852 581.881 21.6406 581.881 22.0859C581.881 22.4922 582.053 22.8398 582.397 23.1289C582.834 23.4961 583.897 23.8789 585.584 24.2773C587.272 24.6758 588.518 25.0898 589.323 25.5195C590.135 25.9414 590.768 26.5234 591.221 27.2656C591.682 28 591.912 28.9102 591.912 29.9961C591.912 30.9805 591.639 31.9023 591.092 32.7617C590.545 33.6211 589.772 34.2617 588.772 34.6836C587.772 35.0977 586.526 35.3047 585.034 35.3047C582.862 35.3047 581.194 34.8047 580.03 33.8047C578.866 32.7969 578.17 31.332 577.944 29.4102ZM601.774 31.0391L605.055 31.5898C604.633 32.793 603.965 33.7109 603.051 34.3438C602.145 34.9688 601.008 35.2812 599.641 35.2812C597.477 35.2812 595.876 34.5742 594.837 33.1602C594.016 32.0273 593.606 30.5977 593.606 28.8711C593.606 26.8086 594.145 25.1953 595.223 24.0312C596.301 22.8594 597.665 22.2734 599.313 22.2734C601.165 22.2734 602.626 22.8867 603.696 24.1133C604.766 25.332 605.278 27.2031 605.231 29.7266H596.981C597.005 30.7031 597.27 31.4648 597.778 32.0117C598.286 32.5508 598.919 32.8203 599.676 32.8203C600.192 32.8203 600.626 32.6797 600.977 32.3984C601.329 32.1172 601.594 31.6641 601.774 31.0391ZM601.962 27.7109C601.938 26.7578 601.692 26.0352 601.223 25.543C600.755 25.043 600.184 24.793 599.512 24.793C598.794 24.793 598.2 25.0547 597.731 25.5781C597.262 26.1016 597.032 26.8125 597.04 27.7109H601.962ZM610.839 35H607.546V22.5547H610.604V24.3242C611.128 23.4883 611.597 22.9375 612.011 22.6719C612.432 22.4062 612.909 22.2734 613.44 22.2734C614.19 22.2734 614.913 22.4805 615.608 22.8945L614.589 25.7656C614.034 25.4062 613.518 25.2266 613.042 25.2266C612.581 25.2266 612.19 25.3555 611.87 25.6133C611.55 25.8633 611.296 26.3203 611.108 26.9844C610.929 27.6484 610.839 29.0391 610.839 31.1562V35ZM620.22 35L615.204 22.5547H618.661L621.005 28.9062L621.685 31.0273C621.864 30.4883 621.978 30.1328 622.025 29.9609C622.134 29.6094 622.251 29.2578 622.376 28.9062L624.743 22.5547H628.13L623.185 35H620.22ZM637.124 31.0391L640.406 31.5898C639.984 32.793 639.316 33.7109 638.402 34.3438C637.495 34.9688 636.359 35.2812 634.992 35.2812C632.827 35.2812 631.226 34.5742 630.187 33.1602C629.367 32.0273 628.956 30.5977 628.956 28.8711C628.956 26.8086 629.495 25.1953 630.574 24.0312C631.652 22.8594 633.015 22.2734 634.663 22.2734C636.515 22.2734 637.976 22.8867 639.046 24.1133C640.117 25.332 640.628 27.2031 640.581 29.7266H632.331C632.355 30.7031 632.62 31.4648 633.128 32.0117C633.636 32.5508 634.269 32.8203 635.027 32.8203C635.542 32.8203 635.976 32.6797 636.327 32.3984C636.679 32.1172 636.945 31.6641 637.124 31.0391ZM637.312 27.7109C637.288 26.7578 637.042 26.0352 636.574 25.543C636.105 25.043 635.535 24.793 634.863 24.793C634.144 24.793 633.55 25.0547 633.081 25.5781C632.613 26.1016 632.382 26.8125 632.39 27.7109H637.312ZM654.451 35H651.392V33.1719C650.884 33.8828 650.283 34.4141 649.587 34.7656C648.9 35.1094 648.205 35.2812 647.502 35.2812C646.072 35.2812 644.845 34.707 643.822 33.5586C642.806 32.4023 642.298 30.793 642.298 28.7305C642.298 26.6211 642.795 25.0195 643.787 23.9258C644.779 22.8242 646.033 22.2734 647.548 22.2734C648.939 22.2734 650.142 22.8516 651.158 24.0078V17.8203H654.451V35ZM645.662 28.5078C645.662 29.8359 645.845 30.7969 646.212 31.3906C646.744 32.25 647.486 32.6797 648.439 32.6797C649.197 32.6797 649.841 32.3594 650.373 31.7188C650.904 31.0703 651.17 30.1055 651.17 28.8242C651.17 27.3945 650.912 26.3672 650.396 25.7422C649.88 25.1094 649.22 24.793 648.416 24.793C647.634 24.793 646.978 25.1055 646.447 25.7305C645.923 26.3477 645.662 27.2734 645.662 28.5078Z" fill="black"/>
<path d="M458.867 145.41L462.242 145.082C462.445 146.215 462.855 147.047 463.473 147.578C464.098 148.109 464.938 148.375 465.992 148.375C467.109 148.375 467.949 148.141 468.512 147.672C469.082 147.195 469.367 146.641 469.367 146.008C469.367 145.602 469.246 145.258 469.004 144.977C468.77 144.688 468.355 144.438 467.762 144.227C467.355 144.086 466.43 143.836 464.984 143.477C463.125 143.016 461.82 142.449 461.07 141.777C460.016 140.832 459.488 139.68 459.488 138.32C459.488 137.445 459.734 136.629 460.227 135.871C460.727 135.105 461.441 134.523 462.371 134.125C463.309 133.727 464.438 133.527 465.758 133.527C467.914 133.527 469.535 134 470.621 134.945C471.715 135.891 472.289 137.152 472.344 138.73L468.875 138.883C468.727 138 468.406 137.367 467.914 136.984C467.43 136.594 466.699 136.398 465.723 136.398C464.715 136.398 463.926 136.605 463.355 137.02C462.988 137.285 462.805 137.641 462.805 138.086C462.805 138.492 462.977 138.84 463.32 139.129C463.758 139.496 464.82 139.879 466.508 140.277C468.195 140.676 469.441 141.09 470.246 141.52C471.059 141.941 471.691 142.523 472.145 143.266C472.605 144 472.836 144.91 472.836 145.996C472.836 146.98 472.562 147.902 472.016 148.762C471.469 149.621 470.695 150.262 469.695 150.684C468.695 151.098 467.449 151.305 465.957 151.305C463.785 151.305 462.117 150.805 460.953 149.805C459.789 148.797 459.094 147.332 458.867 145.41ZM475.397 138.555H478.467V140.383C478.865 139.758 479.405 139.25 480.084 138.859C480.764 138.469 481.518 138.273 482.346 138.273C483.791 138.273 485.018 138.84 486.026 139.973C487.033 141.105 487.537 142.684 487.537 144.707C487.537 146.785 487.03 148.402 486.014 149.559C484.998 150.707 483.768 151.281 482.323 151.281C481.635 151.281 481.01 151.145 480.448 150.871C479.893 150.598 479.307 150.129 478.69 149.465V155.734H475.397V138.555ZM478.655 144.566C478.655 145.965 478.932 147 479.487 147.672C480.041 148.336 480.717 148.668 481.514 148.668C482.28 148.668 482.916 148.363 483.424 147.754C483.932 147.137 484.186 146.129 484.186 144.73C484.186 143.426 483.924 142.457 483.401 141.824C482.877 141.191 482.229 140.875 481.455 140.875C480.651 140.875 479.983 141.188 479.451 141.812C478.92 142.43 478.655 143.348 478.655 144.566ZM497.129 147.039L500.411 147.59C499.989 148.793 499.321 149.711 498.407 150.344C497.5 150.969 496.364 151.281 494.997 151.281C492.833 151.281 491.231 150.574 490.192 149.16C489.372 148.027 488.961 146.598 488.961 144.871C488.961 142.809 489.5 141.195 490.579 140.031C491.657 138.859 493.02 138.273 494.668 138.273C496.52 138.273 497.981 138.887 499.051 140.113C500.122 141.332 500.633 143.203 500.586 145.727H492.336C492.36 146.703 492.625 147.465 493.133 148.012C493.641 148.551 494.274 148.82 495.032 148.82C495.547 148.82 495.981 148.68 496.333 148.398C496.684 148.117 496.95 147.664 497.129 147.039ZM497.317 143.711C497.293 142.758 497.047 142.035 496.579 141.543C496.11 141.043 495.54 140.793 494.868 140.793C494.149 140.793 493.555 141.055 493.086 141.578C492.618 142.102 492.387 142.812 492.395 143.711H497.317ZM513.893 142.234L510.647 142.82C510.538 142.172 510.288 141.684 509.897 141.355C509.514 141.027 509.014 140.863 508.397 140.863C507.577 140.863 506.921 141.148 506.428 141.719C505.944 142.281 505.702 143.227 505.702 144.555C505.702 146.031 505.948 147.074 506.44 147.684C506.94 148.293 507.608 148.598 508.444 148.598C509.069 148.598 509.581 148.422 509.979 148.07C510.378 147.711 510.659 147.098 510.823 146.23L514.057 146.781C513.721 148.266 513.077 149.387 512.124 150.145C511.171 150.902 509.893 151.281 508.292 151.281C506.471 151.281 505.018 150.707 503.932 149.559C502.854 148.41 502.315 146.82 502.315 144.789C502.315 142.734 502.858 141.137 503.944 139.996C505.03 138.848 506.499 138.273 508.35 138.273C509.866 138.273 511.069 138.602 511.96 139.258C512.858 139.906 513.503 140.898 513.893 142.234ZM516.161 136.867V133.82H519.454V136.867H516.161ZM516.161 151V138.555H519.454V151H516.161ZM525.062 142.352L522.073 141.812C522.409 140.609 522.987 139.719 523.808 139.141C524.628 138.562 525.847 138.273 527.464 138.273C528.933 138.273 530.027 138.449 530.745 138.801C531.464 139.145 531.968 139.586 532.257 140.125C532.554 140.656 532.702 141.637 532.702 143.066L532.667 146.91C532.667 148.004 532.718 148.812 532.82 149.336C532.929 149.852 533.128 150.406 533.417 151H530.159C530.073 150.781 529.968 150.457 529.843 150.027C529.788 149.832 529.749 149.703 529.726 149.641C529.163 150.188 528.562 150.598 527.921 150.871C527.28 151.145 526.597 151.281 525.87 151.281C524.589 151.281 523.577 150.934 522.835 150.238C522.101 149.543 521.734 148.664 521.734 147.602C521.734 146.898 521.902 146.273 522.237 145.727C522.573 145.172 523.042 144.75 523.644 144.461C524.253 144.164 525.128 143.906 526.269 143.688C527.808 143.398 528.874 143.129 529.468 142.879V142.551C529.468 141.918 529.312 141.469 528.999 141.203C528.687 140.93 528.097 140.793 527.23 140.793C526.644 140.793 526.187 140.91 525.859 141.145C525.53 141.371 525.265 141.773 525.062 142.352ZM529.468 145.023C529.046 145.164 528.378 145.332 527.464 145.527C526.55 145.723 525.952 145.914 525.671 146.102C525.241 146.406 525.027 146.793 525.027 147.262C525.027 147.723 525.198 148.121 525.542 148.457C525.886 148.793 526.323 148.961 526.855 148.961C527.448 148.961 528.015 148.766 528.554 148.375C528.952 148.078 529.214 147.715 529.339 147.285C529.425 147.004 529.468 146.469 529.468 145.68V145.023ZM535.72 151V133.82H539.013V151H535.72ZM542.16 136.867V133.82H545.453V136.867H542.16ZM542.16 151V138.555H545.453V151H542.16ZM547.275 151V148.434L551.939 143.078C552.705 142.203 553.271 141.582 553.639 141.215C553.256 141.238 552.752 141.254 552.127 141.262L547.732 141.285V138.555H558.021V140.887L553.264 146.371L551.588 148.188C552.502 148.133 553.068 148.105 553.287 148.105H558.385V151H547.275ZM567.567 147.039L570.848 147.59C570.426 148.793 569.758 149.711 568.844 150.344C567.938 150.969 566.801 151.281 565.434 151.281C563.27 151.281 561.668 150.574 560.629 149.16C559.809 148.027 559.399 146.598 559.399 144.871C559.399 142.809 559.938 141.195 561.016 140.031C562.094 138.859 563.457 138.273 565.106 138.273C566.957 138.273 568.418 138.887 569.488 140.113C570.559 141.332 571.07 143.203 571.024 145.727H562.774C562.797 146.703 563.063 147.465 563.57 148.012C564.078 148.551 564.711 148.82 565.469 148.82C565.985 148.82 566.418 148.68 566.77 148.398C567.121 148.117 567.387 147.664 567.567 147.039ZM567.754 143.711C567.731 142.758 567.485 142.035 567.016 141.543C566.547 141.043 565.977 140.793 565.305 140.793C564.586 140.793 563.992 141.055 563.524 141.578C563.055 142.102 562.824 142.812 562.832 143.711H567.754ZM584.893 151H581.834V149.172C581.327 149.883 580.725 150.414 580.03 150.766C579.342 151.109 578.647 151.281 577.944 151.281C576.514 151.281 575.287 150.707 574.264 149.559C573.248 148.402 572.741 146.793 572.741 144.73C572.741 142.621 573.237 141.02 574.229 139.926C575.221 138.824 576.475 138.273 577.991 138.273C579.381 138.273 580.584 138.852 581.6 140.008V133.82H584.893V151ZM576.104 144.508C576.104 145.836 576.287 146.797 576.655 147.391C577.186 148.25 577.928 148.68 578.881 148.68C579.639 148.68 580.284 148.359 580.815 147.719C581.346 147.07 581.612 146.105 581.612 144.824C581.612 143.395 581.354 142.367 580.838 141.742C580.323 141.109 579.662 140.793 578.858 140.793C578.077 140.793 577.42 141.105 576.889 141.73C576.366 142.348 576.104 143.273 576.104 144.508ZM459.746 181V163.82H465.312C467.422 163.82 468.797 163.906 469.438 164.078C470.422 164.336 471.246 164.898 471.91 165.766C472.574 166.625 472.906 167.738 472.906 169.105C472.906 170.16 472.715 171.047 472.332 171.766C471.949 172.484 471.461 173.051 470.867 173.465C470.281 173.871 469.684 174.141 469.074 174.273C468.246 174.438 467.047 174.52 465.477 174.52H463.215V181H459.746ZM463.215 166.727V171.602H465.113C466.48 171.602 467.395 171.512 467.855 171.332C468.316 171.152 468.676 170.871 468.934 170.488C469.199 170.105 469.332 169.66 469.332 169.152C469.332 168.527 469.148 168.012 468.781 167.605C468.414 167.199 467.949 166.945 467.387 166.844C466.973 166.766 466.141 166.727 464.891 166.727H463.215ZM474.729 174.602C474.729 173.508 474.998 172.449 475.537 171.426C476.076 170.402 476.838 169.621 477.823 169.082C478.815 168.543 479.92 168.273 481.139 168.273C483.022 168.273 484.565 168.887 485.768 170.113C486.971 171.332 487.573 172.875 487.573 174.742C487.573 176.625 486.963 178.188 485.744 179.43C484.533 180.664 483.006 181.281 481.162 181.281C480.022 181.281 478.932 181.023 477.893 180.508C476.862 179.992 476.076 179.238 475.537 178.246C474.998 177.246 474.729 176.031 474.729 174.602ZM478.104 174.777C478.104 176.012 478.397 176.957 478.983 177.613C479.569 178.27 480.291 178.598 481.151 178.598C482.01 178.598 482.729 178.27 483.307 177.613C483.893 176.957 484.186 176.004 484.186 174.754C484.186 173.535 483.893 172.598 483.307 171.941C482.729 171.285 482.01 170.957 481.151 170.957C480.291 170.957 479.569 171.285 478.983 171.941C478.397 172.598 478.104 173.543 478.104 174.777ZM488.762 177.449L492.067 176.945C492.208 177.586 492.493 178.074 492.922 178.41C493.352 178.738 493.954 178.902 494.727 178.902C495.579 178.902 496.219 178.746 496.649 178.434C496.938 178.215 497.083 177.922 497.083 177.555C497.083 177.305 497.004 177.098 496.848 176.934C496.684 176.777 496.317 176.633 495.747 176.5C493.09 175.914 491.407 175.379 490.696 174.895C489.711 174.223 489.219 173.289 489.219 172.094C489.219 171.016 489.645 170.109 490.497 169.375C491.348 168.641 492.668 168.273 494.458 168.273C496.161 168.273 497.426 168.551 498.254 169.105C499.083 169.66 499.653 170.48 499.965 171.566L496.86 172.141C496.727 171.656 496.473 171.285 496.098 171.027C495.731 170.77 495.204 170.641 494.516 170.641C493.649 170.641 493.028 170.762 492.653 171.004C492.403 171.176 492.278 171.398 492.278 171.672C492.278 171.906 492.387 172.105 492.606 172.27C492.903 172.488 493.926 172.797 495.676 173.195C497.434 173.594 498.661 174.082 499.356 174.66C500.043 175.246 500.387 176.062 500.387 177.109C500.387 178.25 499.911 179.23 498.958 180.051C498.004 180.871 496.594 181.281 494.727 181.281C493.032 181.281 491.688 180.938 490.696 180.25C489.711 179.562 489.067 178.629 488.762 177.449ZM503.042 166.867V163.82H506.335V166.867H503.042ZM503.042 181V168.555H506.335V181H503.042ZM515.188 168.555V171.18H512.938V176.195C512.938 177.211 512.958 177.805 512.997 177.977C513.044 178.141 513.142 178.277 513.29 178.387C513.446 178.496 513.634 178.551 513.853 178.551C514.157 178.551 514.599 178.445 515.177 178.234L515.458 180.789C514.692 181.117 513.825 181.281 512.856 181.281C512.263 181.281 511.728 181.184 511.251 180.988C510.774 180.785 510.423 180.527 510.196 180.215C509.978 179.895 509.825 179.465 509.739 178.926C509.669 178.543 509.634 177.77 509.634 176.605V171.18H508.122V168.555H509.634V166.082L512.938 164.16V168.555H515.188ZM517.234 166.867V163.82H520.527V166.867H517.234ZM517.234 181V168.555H520.527V181H517.234ZM522.912 174.602C522.912 173.508 523.181 172.449 523.72 171.426C524.259 170.402 525.021 169.621 526.005 169.082C526.998 168.543 528.103 168.273 529.322 168.273C531.205 168.273 532.748 168.887 533.951 170.113C535.154 171.332 535.755 172.875 535.755 174.742C535.755 176.625 535.146 178.188 533.927 179.43C532.716 180.664 531.189 181.281 529.345 181.281C528.205 181.281 527.115 181.023 526.076 180.508C525.044 179.992 524.259 179.238 523.72 178.246C523.181 177.246 522.912 176.031 522.912 174.602ZM526.287 174.777C526.287 176.012 526.58 176.957 527.165 177.613C527.751 178.27 528.474 178.598 529.333 178.598C530.193 178.598 530.912 178.27 531.49 177.613C532.076 176.957 532.369 176.004 532.369 174.754C532.369 173.535 532.076 172.598 531.49 171.941C530.912 171.285 530.193 170.957 529.333 170.957C528.474 170.957 527.751 171.285 527.165 171.941C526.58 172.598 526.287 173.543 526.287 174.777ZM549.425 181H546.132V174.648C546.132 173.305 546.062 172.438 545.922 172.047C545.781 171.648 545.55 171.34 545.23 171.121C544.918 170.902 544.539 170.793 544.093 170.793C543.523 170.793 543.011 170.949 542.558 171.262C542.105 171.574 541.793 171.988 541.621 172.504C541.457 173.02 541.375 173.973 541.375 175.363V181H538.082V168.555H541.14V170.383C542.226 168.977 543.593 168.273 545.242 168.273C545.968 168.273 546.632 168.406 547.234 168.672C547.836 168.93 548.289 169.262 548.593 169.668C548.906 170.074 549.121 170.535 549.238 171.051C549.363 171.566 549.425 172.305 549.425 173.266V181ZM551.377 177.449L554.682 176.945C554.822 177.586 555.107 178.074 555.537 178.41C555.967 178.738 556.568 178.902 557.342 178.902C558.193 178.902 558.834 178.746 559.264 178.434C559.553 178.215 559.697 177.922 559.697 177.555C559.697 177.305 559.619 177.098 559.463 176.934C559.299 176.777 558.932 176.633 558.361 176.5C555.705 175.914 554.021 175.379 553.31 174.895C552.326 174.223 551.834 173.289 551.834 172.094C551.834 171.016 552.26 170.109 553.111 169.375C553.963 168.641 555.283 168.273 557.072 168.273C558.775 168.273 560.041 168.551 560.869 169.105C561.697 169.66 562.268 170.48 562.58 171.566L559.475 172.141C559.342 171.656 559.088 171.285 558.713 171.027C558.346 170.77 557.818 170.641 557.131 170.641C556.264 170.641 555.643 170.762 555.268 171.004C555.018 171.176 554.893 171.398 554.893 171.672C554.893 171.906 555.002 172.105 555.221 172.27C555.518 172.488 556.541 172.797 558.291 173.195C560.049 173.594 561.275 174.082 561.971 174.66C562.658 175.246 563.002 176.062 563.002 177.109C563.002 178.25 562.525 179.23 561.572 180.051C560.619 180.871 559.209 181.281 557.342 181.281C555.646 181.281 554.303 180.938 553.31 180.25C552.326 179.562 551.682 178.629 551.377 177.449Z" fill="black"/>
<path d="M64.7344 133.82H71.0742C72.5039 133.82 73.5938 133.93 74.3438 134.148C75.3516 134.445 76.2148 134.973 76.9336 135.73C77.6523 136.488 78.1992 137.418 78.5742 138.52C78.9492 139.613 79.1367 140.965 79.1367 142.574C79.1367 143.988 78.9609 145.207 78.6094 146.23C78.1797 147.48 77.5664 148.492 76.7695 149.266C76.168 149.852 75.3555 150.309 74.332 150.637C73.5664 150.879 72.543 151 71.2617 151H64.7344V133.82ZM68.2031 136.727V148.105H70.793C71.7617 148.105 72.4609 148.051 72.8906 147.941C73.4531 147.801 73.918 147.562 74.2852 147.227C74.6602 146.891 74.9648 146.34 75.1992 145.574C75.4336 144.801 75.5508 143.75 75.5508 142.422C75.5508 141.094 75.4336 140.074 75.1992 139.363C74.9648 138.652 74.6367 138.098 74.2148 137.699C73.793 137.301 73.2578 137.031 72.6094 136.891C72.125 136.781 71.1758 136.727 69.7617 136.727H68.2031ZM81.8264 136.867V133.82H85.1194V136.867H81.8264ZM81.8264 151V138.555H85.1194V151H81.8264ZM91.688 151L86.6723 138.555H90.1294L92.4731 144.906L93.1528 147.027C93.3325 146.488 93.4458 146.133 93.4927 145.961C93.602 145.609 93.7192 145.258 93.8442 144.906L96.2114 138.555H99.5981L94.6528 151H91.688ZM101.385 136.867V133.82H104.678V136.867H101.385ZM101.385 151V138.555H104.678V151H101.385ZM106.665 147.449L109.97 146.945C110.11 147.586 110.395 148.074 110.825 148.41C111.255 148.738 111.856 148.902 112.63 148.902C113.481 148.902 114.122 148.746 114.552 148.434C114.841 148.215 114.985 147.922 114.985 147.555C114.985 147.305 114.907 147.098 114.751 146.934C114.587 146.777 114.22 146.633 113.649 146.5C110.993 145.914 109.31 145.379 108.599 144.895C107.614 144.223 107.122 143.289 107.122 142.094C107.122 141.016 107.548 140.109 108.399 139.375C109.251 138.641 110.571 138.273 112.36 138.273C114.063 138.273 115.329 138.551 116.157 139.105C116.985 139.66 117.556 140.48 117.868 141.566L114.763 142.141C114.63 141.656 114.376 141.285 114.001 141.027C113.634 140.77 113.106 140.641 112.419 140.641C111.552 140.641 110.931 140.762 110.556 141.004C110.306 141.176 110.181 141.398 110.181 141.672C110.181 141.906 110.29 142.105 110.509 142.27C110.806 142.488 111.829 142.797 113.579 143.195C115.337 143.594 116.563 144.082 117.259 144.66C117.946 145.246 118.29 146.062 118.29 147.109C118.29 148.25 117.813 149.23 116.86 150.051C115.907 150.871 114.497 151.281 112.63 151.281C110.935 151.281 109.591 150.938 108.599 150.25C107.614 149.562 106.97 148.629 106.665 147.449ZM120.945 136.867V133.82H124.237V136.867H120.945ZM120.945 151V138.555H124.237V151H120.945ZM126.623 144.602C126.623 143.508 126.892 142.449 127.431 141.426C127.97 140.402 128.732 139.621 129.716 139.082C130.708 138.543 131.814 138.273 133.033 138.273C134.915 138.273 136.458 138.887 137.662 140.113C138.865 141.332 139.466 142.875 139.466 144.742C139.466 146.625 138.857 148.188 137.638 149.43C136.427 150.664 134.9 151.281 133.056 151.281C131.915 151.281 130.826 151.023 129.787 150.508C128.755 149.992 127.97 149.238 127.431 148.246C126.892 147.246 126.623 146.031 126.623 144.602ZM129.998 144.777C129.998 146.012 130.29 146.957 130.876 147.613C131.462 148.27 132.185 148.598 133.044 148.598C133.904 148.598 134.623 148.27 135.201 147.613C135.787 146.957 136.08 146.004 136.08 144.754C136.08 143.535 135.787 142.598 135.201 141.941C134.623 141.285 133.904 140.957 133.044 140.957C132.185 140.957 131.462 141.285 130.876 141.941C130.29 142.598 129.998 143.543 129.998 144.777ZM153.136 151H149.843V144.648C149.843 143.305 149.773 142.438 149.632 142.047C149.492 141.648 149.261 141.34 148.941 141.121C148.629 140.902 148.25 140.793 147.804 140.793C147.234 140.793 146.722 140.949 146.269 141.262C145.816 141.574 145.504 141.988 145.332 142.504C145.168 143.02 145.086 143.973 145.086 145.363V151H141.793V138.555H144.851V140.383C145.937 138.977 147.304 138.273 148.953 138.273C149.679 138.273 150.343 138.406 150.945 138.672C151.547 138.93 152 139.262 152.304 139.668C152.617 140.074 152.832 140.535 152.949 141.051C153.074 141.566 153.136 142.305 153.136 143.266V151ZM155.088 147.449L158.393 146.945C158.533 147.586 158.818 148.074 159.248 148.41C159.678 148.738 160.279 148.902 161.053 148.902C161.904 148.902 162.545 148.746 162.975 148.434C163.264 148.215 163.408 147.922 163.408 147.555C163.408 147.305 163.33 147.098 163.174 146.934C163.01 146.777 162.643 146.633 162.072 146.5C159.416 145.914 157.732 145.379 157.021 144.895C156.037 144.223 155.545 143.289 155.545 142.094C155.545 141.016 155.971 140.109 156.822 139.375C157.674 138.641 158.994 138.273 160.783 138.273C162.486 138.273 163.752 138.551 164.58 139.105C165.408 139.66 165.978 140.48 166.291 141.566L163.185 142.141C163.053 141.656 162.799 141.285 162.424 141.027C162.057 140.77 161.529 140.641 160.842 140.641C159.975 140.641 159.353 140.762 158.978 141.004C158.728 141.176 158.603 141.398 158.603 141.672C158.603 141.906 158.713 142.105 158.932 142.27C159.228 142.488 160.252 142.797 162.002 143.195C163.76 143.594 164.986 144.082 165.682 144.66C166.369 145.246 166.713 146.062 166.713 147.109C166.713 148.25 166.236 149.23 165.283 150.051C164.33 150.871 162.92 151.281 161.053 151.281C159.357 151.281 158.014 150.938 157.021 150.25C156.037 149.562 155.393 148.629 155.088 147.449Z" fill="black"/>
<path d="M93.8672 22.4102L97.2422 22.082C97.4453 23.2148 97.8555 24.0469 98.4727 24.5781C99.0977 25.1094 99.9375 25.375 100.992 25.375C102.109 25.375 102.949 25.1406 103.512 24.6719C104.082 24.1953 104.367 23.6406 104.367 23.0078C104.367 22.6016 104.246 22.2578 104.004 21.9766C103.77 21.6875 103.355 21.4375 102.762 21.2266C102.355 21.0859 101.43 20.8359 99.9844 20.4766C98.125 20.0156 96.8203 19.4492 96.0703 18.7773C95.0156 17.832 94.4883 16.6797 94.4883 15.3203C94.4883 14.4453 94.7344 13.6289 95.2266 12.8711C95.7266 12.1055 96.4414 11.5234 97.3711 11.125C98.3086 10.7266 99.4375 10.5273 100.758 10.5273C102.914 10.5273 104.535 11 105.621 11.9453C106.715 12.8906 107.289 14.1523 107.344 15.7305L103.875 15.8828C103.727 15 103.406 14.3672 102.914 13.9844C102.43 13.5938 101.699 13.3984 100.723 13.3984C99.7148 13.3984 98.9258 13.6055 98.3555 14.0195C97.9883 14.2852 97.8047 14.6406 97.8047 15.0859C97.8047 15.4922 97.9766 15.8398 98.3203 16.1289C98.7578 16.4961 99.8203 16.8789 101.508 17.2773C103.195 17.6758 104.441 18.0898 105.246 18.5195C106.059 18.9414 106.691 19.5234 107.145 20.2656C107.605 21 107.836 21.9102 107.836 22.9961C107.836 23.9805 107.562 24.9023 107.016 25.7617C106.469 26.6211 105.695 27.2617 104.695 27.6836C103.695 28.0977 102.449 28.3047 100.957 28.3047C98.7852 28.3047 97.1172 27.8047 95.9531 26.8047C94.7891 25.7969 94.0938 24.332 93.8672 22.4102ZM118.623 32.7344V26.4766C118.194 27.0312 117.658 27.4727 117.018 27.8008C116.377 28.1211 115.686 28.2812 114.944 28.2812C113.53 28.2812 112.365 27.75 111.451 26.6875C110.373 25.4453 109.834 23.7617 109.834 21.6367C109.834 19.6367 110.338 18.0781 111.346 16.9609C112.362 15.8359 113.619 15.2734 115.119 15.2734C115.948 15.2734 116.662 15.4492 117.264 15.8008C117.873 16.1523 118.412 16.6836 118.881 17.3945V15.5547H121.916V32.7344H118.623ZM118.729 21.625C118.729 20.3516 118.467 19.4062 117.944 18.7891C117.428 18.1641 116.78 17.8516 115.998 17.8516C115.201 17.8516 114.533 18.168 113.994 18.8008C113.463 19.4336 113.198 20.4375 113.198 21.8125C113.198 23.1797 113.455 24.168 113.971 24.7773C114.487 25.3789 115.123 25.6797 115.881 25.6797C116.639 25.6797 117.303 25.3398 117.873 24.6602C118.444 23.9805 118.729 22.9688 118.729 21.625ZM133.114 28V26.1367C132.661 26.8008 132.063 27.3242 131.321 27.707C130.586 28.0898 129.809 28.2812 128.989 28.2812C128.153 28.2812 127.403 28.0977 126.739 27.7305C126.075 27.3633 125.594 26.8477 125.297 26.1836C125 25.5195 124.852 24.6016 124.852 23.4297V15.5547H128.145V21.2734C128.145 23.0234 128.204 24.0977 128.321 24.4961C128.446 24.8867 128.668 25.1992 128.989 25.4336C129.309 25.6602 129.715 25.7734 130.208 25.7734C130.77 25.7734 131.274 25.6211 131.719 25.3164C132.165 25.0039 132.469 24.6211 132.633 24.168C132.797 23.707 132.879 22.5859 132.879 20.8047V15.5547H136.172V28H133.114ZM141.815 19.3516L138.827 18.8125C139.163 17.6094 139.741 16.7188 140.561 16.1406C141.382 15.5625 142.6 15.2734 144.217 15.2734C145.686 15.2734 146.78 15.4492 147.499 15.8008C148.217 16.1445 148.721 16.5859 149.01 17.125C149.307 17.6562 149.456 18.6367 149.456 20.0664L149.421 23.9102C149.421 25.0039 149.471 25.8125 149.573 26.3359C149.682 26.8516 149.882 27.4062 150.171 28H146.913C146.827 27.7812 146.721 27.457 146.596 27.0273C146.542 26.832 146.503 26.7031 146.479 26.6406C145.917 27.1875 145.315 27.5977 144.675 27.8711C144.034 28.1445 143.35 28.2812 142.624 28.2812C141.342 28.2812 140.331 27.9336 139.589 27.2383C138.854 26.543 138.487 25.6641 138.487 24.6016C138.487 23.8984 138.655 23.2734 138.991 22.7266C139.327 22.1719 139.796 21.75 140.397 21.4609C141.007 21.1641 141.882 20.9062 143.022 20.6875C144.561 20.3984 145.628 20.1289 146.221 19.8789V19.5508C146.221 18.918 146.065 18.4688 145.753 18.2031C145.44 17.9297 144.85 17.793 143.983 17.793C143.397 17.793 142.94 17.9102 142.612 18.1445C142.284 18.3711 142.018 18.7734 141.815 19.3516ZM146.221 22.0234C145.8 22.1641 145.132 22.332 144.217 22.5273C143.303 22.7227 142.706 22.9141 142.425 23.1016C141.995 23.4062 141.78 23.793 141.78 24.2617C141.78 24.7227 141.952 25.1211 142.296 25.457C142.639 25.793 143.077 25.9609 143.608 25.9609C144.202 25.9609 144.768 25.7656 145.307 25.375C145.706 25.0781 145.967 24.7148 146.092 24.2852C146.178 24.0039 146.221 23.4688 146.221 22.6797V22.0234ZM155.626 28H152.333V15.5547H155.392V17.3242C155.915 16.4883 156.384 15.9375 156.798 15.6719C157.22 15.4062 157.696 15.2734 158.228 15.2734C158.978 15.2734 159.7 15.4805 160.395 15.8945L159.376 18.7656C158.821 18.4062 158.306 18.2266 157.829 18.2266C157.368 18.2266 156.978 18.3555 156.657 18.6133C156.337 18.8633 156.083 19.3203 155.895 19.9844C155.716 20.6484 155.626 22.0391 155.626 24.1562V28ZM168.792 24.0391L172.073 24.5898C171.652 25.793 170.984 26.7109 170.07 27.3438C169.163 27.9688 168.027 28.2812 166.659 28.2812C164.495 28.2812 162.894 27.5742 161.855 26.1602C161.034 25.0273 160.624 23.5977 160.624 21.8711C160.624 19.8086 161.163 18.1953 162.241 17.0312C163.32 15.8594 164.683 15.2734 166.331 15.2734C168.183 15.2734 169.644 15.8867 170.714 17.1133C171.784 18.332 172.296 20.2031 172.249 22.7266H163.999C164.023 23.7031 164.288 24.4648 164.796 25.0117C165.304 25.5508 165.937 25.8203 166.695 25.8203C167.21 25.8203 167.644 25.6797 167.995 25.3984C168.347 25.1172 168.613 24.6641 168.792 24.0391ZM168.98 20.7109C168.956 19.7578 168.71 19.0352 168.241 18.543C167.773 18.043 167.202 17.793 166.53 17.793C165.812 17.793 165.218 18.0547 164.749 18.5781C164.28 19.1016 164.05 19.8125 164.058 20.7109H168.98ZM181.121 28V10.8203H186.312L189.429 22.5391L192.511 10.8203H197.715V28H194.492V14.4766L191.082 28H187.742L184.343 14.4766V28H181.121ZM200.896 13.8672V10.8203H204.189V13.8672H200.896ZM200.896 28V15.5547H204.189V28H200.896ZM207.336 28V10.8203H210.629V28H207.336ZM220.983 24.0391L224.264 24.5898C223.842 25.793 223.174 26.7109 222.26 27.3438C221.354 27.9688 220.217 28.2812 218.85 28.2812C216.686 28.2812 215.084 27.5742 214.045 26.1602C213.225 25.0273 212.815 23.5977 212.815 21.8711C212.815 19.8086 213.354 18.1953 214.432 17.0312C215.51 15.8594 216.873 15.2734 218.522 15.2734C220.373 15.2734 221.834 15.8867 222.905 17.1133C223.975 18.332 224.487 20.2031 224.44 22.7266H216.19C216.213 23.7031 216.479 24.4648 216.987 25.0117C217.495 25.5508 218.127 25.8203 218.885 25.8203C219.401 25.8203 219.834 25.6797 220.186 25.3984C220.537 25.1172 220.803 24.6641 220.983 24.0391ZM221.17 20.7109C221.147 19.7578 220.901 19.0352 220.432 18.543C219.963 18.043 219.393 17.793 218.721 17.793C218.002 17.793 217.409 18.0547 216.94 18.5781C216.471 19.1016 216.241 19.8125 216.248 20.7109H221.17ZM225.735 24.4492L229.04 23.9453C229.18 24.5859 229.465 25.0742 229.895 25.4102C230.325 25.7383 230.926 25.9023 231.7 25.9023C232.551 25.9023 233.192 25.7461 233.622 25.4336C233.911 25.2148 234.055 24.9219 234.055 24.5547C234.055 24.3047 233.977 24.0977 233.821 23.9336C233.657 23.7773 233.29 23.6328 232.719 23.5C230.063 22.9141 228.38 22.3789 227.669 21.8945C226.684 21.2227 226.192 20.2891 226.192 19.0938C226.192 18.0156 226.618 17.1094 227.469 16.375C228.321 15.6406 229.641 15.2734 231.43 15.2734C233.133 15.2734 234.399 15.5508 235.227 16.1055C236.055 16.6602 236.626 17.4805 236.938 18.5664L233.833 19.1406C233.7 18.6562 233.446 18.2852 233.071 18.0273C232.704 17.7695 232.176 17.6406 231.489 17.6406C230.622 17.6406 230.001 17.7617 229.626 18.0039C229.376 18.1758 229.251 18.3984 229.251 18.6719C229.251 18.9062 229.36 19.1055 229.579 19.2695C229.876 19.4883 230.899 19.7969 232.649 20.1953C234.407 20.5938 235.633 21.082 236.329 21.6602C237.016 22.2461 237.36 23.0625 237.36 24.1094C237.36 25.25 236.883 26.2305 235.93 27.0508C234.977 27.8711 233.567 28.2812 231.7 28.2812C230.005 28.2812 228.661 27.9375 227.669 27.25C226.684 26.5625 226.04 25.6289 225.735 24.4492ZM105.738 51.6836L109.102 52.75C108.586 54.625 107.727 56.0195 106.523 56.9336C105.328 57.8398 103.809 58.293 101.965 58.293C99.6836 58.293 97.8086 57.5156 96.3398 55.9609C94.8711 54.3984 94.1367 52.2656 94.1367 49.5625C94.1367 46.7031 94.875 44.4844 96.3516 42.9062C97.8281 41.3203 99.7695 40.5273 102.176 40.5273C104.277 40.5273 105.984 41.1484 107.297 42.3906C108.078 43.125 108.664 44.1797 109.055 45.5547L105.621 46.375C105.418 45.4844 104.992 44.7812 104.344 44.2656C103.703 43.75 102.922 43.4922 102 43.4922C100.727 43.4922 99.6914 43.9492 98.8945 44.8633C98.1055 45.7773 97.7109 47.2578 97.7109 49.3047C97.7109 51.4766 98.1016 53.0234 98.8828 53.9453C99.6641 54.8672 100.68 55.3281 101.93 55.3281C102.852 55.3281 103.645 55.0352 104.309 54.4492C104.973 53.8633 105.449 52.9414 105.738 51.6836ZM111.065 51.6016C111.065 50.5078 111.334 49.4492 111.873 48.4258C112.412 47.4023 113.174 46.6211 114.158 46.082C115.151 45.543 116.256 45.2734 117.475 45.2734C119.358 45.2734 120.901 45.8867 122.104 47.1133C123.307 48.332 123.908 49.875 123.908 51.7422C123.908 53.625 123.299 55.1875 122.08 56.4297C120.869 57.6641 119.342 58.2812 117.498 58.2812C116.358 58.2812 115.268 58.0234 114.229 57.5078C113.198 56.9922 112.412 56.2383 111.873 55.2461C111.334 54.2461 111.065 53.0312 111.065 51.6016ZM114.44 51.7773C114.44 53.0117 114.733 53.957 115.319 54.6133C115.905 55.2695 116.627 55.5977 117.487 55.5977C118.346 55.5977 119.065 55.2695 119.643 54.6133C120.229 53.957 120.522 53.0039 120.522 51.7539C120.522 50.5352 120.229 49.5977 119.643 48.9414C119.065 48.2852 118.346 47.957 117.487 47.957C116.627 47.957 115.905 48.2852 115.319 48.9414C114.733 49.5977 114.44 50.543 114.44 51.7773ZM129.68 58L124.665 45.5547H128.122L130.465 51.9062L131.145 54.0273C131.325 53.4883 131.438 53.1328 131.485 52.9609C131.594 52.6094 131.711 52.2578 131.836 51.9062L134.204 45.5547H137.59L132.645 58H129.68ZM146.585 54.0391L149.866 54.5898C149.444 55.793 148.776 56.7109 147.862 57.3438C146.956 57.9688 145.819 58.2812 144.452 58.2812C142.288 58.2812 140.686 57.5742 139.647 56.1602C138.827 55.0273 138.417 53.5977 138.417 51.8711C138.417 49.8086 138.956 48.1953 140.034 47.0312C141.112 45.8594 142.475 45.2734 144.124 45.2734C145.975 45.2734 147.436 45.8867 148.507 47.1133C149.577 48.332 150.089 50.2031 150.042 52.7266H141.792C141.815 53.7031 142.081 54.4648 142.589 55.0117C143.096 55.5508 143.729 55.8203 144.487 55.8203C145.003 55.8203 145.436 55.6797 145.788 55.3984C146.139 55.1172 146.405 54.6641 146.585 54.0391ZM146.772 50.7109C146.749 49.7578 146.503 49.0352 146.034 48.543C145.565 48.043 144.995 47.793 144.323 47.793C143.604 47.793 143.01 48.0547 142.542 48.5781C142.073 49.1016 141.842 49.8125 141.85 50.7109H146.772ZM155.649 58H152.356V45.5547H155.415V47.3242C155.938 46.4883 156.407 45.9375 156.821 45.6719C157.243 45.4062 157.72 45.2734 158.251 45.2734C159.001 45.2734 159.724 45.4805 160.419 45.8945L159.399 48.7656C158.845 48.4062 158.329 48.2266 157.853 48.2266C157.392 48.2266 157.001 48.3555 156.681 48.6133C156.36 48.8633 156.106 49.3203 155.919 49.9844C155.739 50.6484 155.649 52.0391 155.649 54.1562V58ZM168.816 54.0391L172.097 54.5898C171.675 55.793 171.007 56.7109 170.093 57.3438C169.187 57.9688 168.05 58.2812 166.683 58.2812C164.519 58.2812 162.917 57.5742 161.878 56.1602C161.058 55.0273 160.648 53.5977 160.648 51.8711C160.648 49.8086 161.187 48.1953 162.265 47.0312C163.343 45.8594 164.706 45.2734 166.355 45.2734C168.206 45.2734 169.667 45.8867 170.738 47.1133C171.808 48.332 172.32 50.2031 172.273 52.7266H164.023C164.046 53.7031 164.312 54.4648 164.82 55.0117C165.327 55.5508 165.96 55.8203 166.718 55.8203C167.234 55.8203 167.667 55.6797 168.019 55.3984C168.37 55.1172 168.636 54.6641 168.816 54.0391ZM169.003 50.7109C168.98 49.7578 168.734 49.0352 168.265 48.543C167.796 48.043 167.226 47.793 166.554 47.793C165.835 47.793 165.241 48.0547 164.773 48.5781C164.304 49.1016 164.073 49.8125 164.081 50.7109H169.003ZM186.142 58H183.083V56.1719C182.576 56.8828 181.974 57.4141 181.279 57.7656C180.591 58.1094 179.896 58.2812 179.193 58.2812C177.763 58.2812 176.537 57.707 175.513 56.5586C174.497 55.4023 173.99 53.793 173.99 51.7305C173.99 49.6211 174.486 48.0195 175.478 46.9258C176.47 45.8242 177.724 45.2734 179.24 45.2734C180.63 45.2734 181.833 45.8516 182.849 47.0078V40.8203H186.142V58ZM177.353 51.5078C177.353 52.8359 177.537 53.7969 177.904 54.3906C178.435 55.25 179.177 55.6797 180.13 55.6797C180.888 55.6797 181.533 55.3594 182.064 54.7188C182.595 54.0703 182.861 53.1055 182.861 51.8242C182.861 50.3945 182.603 49.3672 182.087 48.7422C181.572 48.1094 180.912 47.793 180.107 47.793C179.326 47.793 178.669 48.1055 178.138 48.7305C177.615 49.3477 177.353 50.2734 177.353 51.5078Z" fill="black"/>
</svg>
